<svg id="Layer_7" data-name="Layer 7" xmlns="http://www.w3.org/2000/svg" viewBox="0 0 1451 1592.08"><defs><style>.cls-1{fill:none;}.cls-2{fill:#fff;stroke:#fff;stroke-miterlimit:10;}</style></defs><path class="cls-1" d="M736.55,417.36c-168.48,0-305,21.73-305,48.54s136.57,48.54,305,48.54,305-21.72,305-48.54S905,417.36,736.55,417.36Z" transform="translate(-12.73 -8.81)"/><path class="cls-2" d="M1081.36,189.87C1059.6,88,914,9.31,737.55,9.31S415.49,88,393.73,189.87C496,180,613.13,174.32,737.55,174.32S979.05,180,1081.36,189.87Z" transform="translate(-12.73 -8.81)"/><path class="cls-2" d="M1462.07,309.05l0-.06c-21.61-64.49-337.42-115.66-723.82-115.66-384.91,0-699.76,50.77-723.56,114.91-.1.27-.19.54-.28.81a22.09,22.09,0,0,0-1.16,7c0,20.05,28.42,39,78.8,55.69,36.33,12.05,84.09,23,140.86,32.3C322.41,372.45,515,350.6,738.23,350.6S1154,372.45,1243.56,404c58-9.55,106.62-20.72,143.24-33.09,48.9-16.52,76.43-35.17,76.43-54.9A22.09,22.09,0,0,0,1462.07,309.05Z" transform="translate(-12.73 -8.81)"/><path class="cls-2" d="M1242.56,433.3c-89.53-30.1-282.15-50.93-505.33-50.93S321.41,403.2,231.89,433.3c-32.52,10.94-51.44,23.1-53.26,35.94a13.94,13.94,0,0,0-.15,2.05c0,29.76,91.87,56.1,232.93,72.23q18.49,2.12,38.1,4l-189,984.23h.21c0,.31-.05.63-.05.94,0,36,207.57,65.43,469.57,67.58v.13q7.71,0,15.36,0c5.11,0,10.22,0,15.36,0v-.13c262-2.15,469.57-31.59,469.57-67.58,0-.31,0-.63,0-.94h.21L1041.44,545.88c6.85-.71,13.62-1.44,20.26-2.2C1203.53,527.56,1296,501.14,1296,471.29a14.67,14.67,0,0,0-.44-3.54C1292.53,455.47,1273.84,443.81,1242.56,433.3Zm-506,107.14c-168.48,0-305-21.72-305-48.54s136.57-48.54,305-48.54,305,21.73,305,48.54S905,540.44,736.55,540.44Z" transform="translate(-12.73 -8.81)"/></svg>