<svg id="e3b98945-26b3-4fa9-8ec3-7bed4ee2e0c3" data-name="Layer 1" xmlns="http://www.w3.org/2000/svg" viewBox="0 0 206.6 229.7">
  <path d="M155,27.1c-3.1-14.5-23.9-25.7-49-25.7S60.11,12.6,57,27.1c14.6-1.4,31.3-2.2,49-2.2S140.41,25.7,155,27.1Z" transform="translate(-2.91 -1.4)" style="fill: #fff"/>
  <path d="M209.31,44.1c-3.1-9.2-48.1-16.5-103.1-16.5-54.8,0-99.7,7.2-103.1,16.4v.1a3.55,3.55,0,0,0-.2,1c0,2.9,4,5.6,11.2,7.9a135.53,135.53,0,0,0,20.1,4.6c12.8-4.5,40.2-7.6,72-7.6s59.2,3.1,72,7.6a146.34,146.34,0,0,0,20.4-4.7c7-2.4,10.9-5,10.9-7.8C209.41,44.7,209.41,44.4,209.31,44.1Z" transform="translate(-2.91 -1.4)" style="fill: #fff"/>
  <path d="M185.81,70.3a.9.9,0,0,0-.1-.5c-.4-1.8-3.1-3.4-7.5-4.9-12.8-4.3-40.2-7.3-72-7.3s-59.3,3-72,7.3c-4.6,1.6-7.3,3.3-7.6,5.1v.3c0,4.2,13.1,8,33.2,10.3l5.4.6L38.31,221.4v.1c0,5.1,29.6,9.3,66.9,9.6h4.4c37.3-.3,66.9-4.5,66.9-9.6v-.1l-27-140.5,2.9-.3C172.61,78.3,185.81,74.5,185.81,70.3Z" transform="translate(-2.91 -1.4)" style="fill: #fff"/>
</svg>
