<?xml version="1.0" encoding="utf-8"?>
<!-- Generator: Adobe Illustrator 24.1.2, SVG Export Plug-In . SVG Version: 6.00 Build 0)  -->
<svg version="1.1" id="Layer_1" xmlns="http://www.w3.org/2000/svg" xmlns:xlink="http://www.w3.org/1999/xlink" x="0px" y="0px"
	 viewBox="0 0 212.2 234.9" style="enable-background:new 0 0 212.2 234.9;" xml:space="preserve">
<style type="text/css">
	.st0{fill:#FFFFFF;}
</style>
<path class="st0" d="M155,27.1c-3.1-14.5-23.9-25.7-49-25.7S60.1,12.6,57,27.1c14.6-1.4,31.3-2.2,49-2.2S140.4,25.7,155,27.1z"/>
<path class="st0" d="M209.3,44.1c-3.1-9.2-48.1-16.5-103.1-16.5C51.4,27.6,6.5,34.8,3.1,44v0.1c-0.1,0.3-0.2,0.7-0.2,1
	c0,2.9,4,5.6,11.2,7.9c5.2,1.7,12,3.3,20.1,4.6c12.8-4.5,40.2-7.6,72-7.6s59.2,3.1,72,7.6c8.3-1.4,15.2-3,20.4-4.7
	c7-2.4,10.9-5,10.9-7.8C209.4,44.7,209.4,44.4,209.3,44.1z"/>
<path class="st0" d="M185.8,70.3c0-0.2,0-0.3-0.1-0.5c-0.4-1.8-3.1-3.4-7.5-4.9c-12.8-4.3-40.2-7.3-72-7.3s-59.3,3-72,7.3
	c-4.6,1.6-7.3,3.3-7.6,5.1c0,0.1,0,0.2,0,0.3c0,4.2,13.1,8,33.2,10.3c1.8,0.2,3.6,0.4,5.4,0.6L38.3,221.4v0.1
	c0,5.1,29.6,9.3,66.9,9.6c0.7,0,1.5,0,2.2,0s1.5,0,2.2,0c37.3-0.3,66.9-4.5,66.9-9.6v-0.1l-27-140.5c1-0.1,1.9-0.2,2.9-0.3
	C172.6,78.3,185.8,74.5,185.8,70.3z"/>
</svg>
