<?xml version="1.0" encoding="utf-8"?>
<!-- Generator: Adobe Illustrator 24.1.2, SVG Export Plug-In . SVG Version: 6.00 Build 0)  -->
<svg version="1.1" id="Layer_1" xmlns="http://www.w3.org/2000/svg" xmlns:xlink="http://www.w3.org/1999/xlink" x="0px" y="0px"
	 viewBox="0 0 932.4 234.9" style="enable-background:new 0 0 932.4 234.9;" xml:space="preserve">
<style type="text/css">
	.st0{enable-background:new    ;}
	.st1{fill:#FFFFFF;}
</style>
<g>
	<g class="st0">
		<path class="st1" d="M10.1,57.6H1.6C0.5,57,0,56.5,0,56.1s0.5-0.9,1.6-1.4H48c0.5,0,0.9,0.1,1.2,0.4c0.3,0.3,0.4,0.6,0.4,0.9
			c0,0.5-0.1,0.9-0.4,1.2c-0.3,0.3-0.7,0.4-1.2,0.4h-8.1v158.8c0,3.2,1.1,5.7,3.4,7.5c2.2,1.8,5.3,2.7,9.1,2.7
			c6.9,0,12.6-2.2,17.2-6.5c4.5-4.3,6.8-11.2,6.8-20.6V72.4c0-5.8-0.6-9.4-1.8-11c-1.2-1.6-3.5-2.7-6.9-3.3
			c-1.7-0.3-2.9-0.7-3.4-1.1c-0.5-0.4-0.8-0.9-0.8-1.3l0.3-0.8l1.2-0.2h22.8c0.6,0,1.3,0.4,2.2,1.2c0,0.4-0.2,0.7-0.7,1
			c-0.4,0.3-1.2,0.5-2.2,0.7c-1.9,0.2-3.4,1.1-4.5,2.7c-1.8,2.5-2.8,6.5-2.8,12.1v130.3c0,8.9-2.9,15.7-8.6,20.3s-14,6.9-24.8,6.9
			c-13.6,0-23.5-2.8-29.6-8.3c-4.3-3.9-6.4-11.3-6.4-22.2V57.6H10.1z"/>
		<path class="st1" d="M107.9,57.6h-9c-1.1-0.5-1.6-1-1.6-1.4c0-0.5,0.5-1,1.6-1.5h80v64.1c0,0.4-0.1,0.7-0.4,0.9
			c-0.3,0.2-0.6,0.3-1.1,0.3c-0.6,0-1-0.2-1.2-0.5c-0.3-0.3-0.5-1.5-0.6-3.6c-0.5-9.5-2.5-19.7-6.1-30.6s-7-18.2-10.2-22.2
			c-1.6-2-3.6-3.4-6-4.3s-5.9-1.3-10.8-1.3h-4.9v81.1c4.6-0.3,8.5-2.5,11.7-6.6c4.9-6.2,7.3-15.9,7.3-28.9v-6.3c0-0.5,0.1-0.8,0.5-1
			c0.3-0.2,0.7-0.3,1.2-0.3s0.9,0.1,1.2,0.4s0.5,0.6,0.5,1v86.5c0,0.5-0.2,0.8-0.5,1s-0.7,0.3-1.2,0.3l-1.1-0.3
			c-0.4-0.3-0.6-0.7-0.6-1v-10.3c0-11.1-2.4-19.6-7.2-25.5c-3.1-3.8-7.1-5.7-11.8-5.9v83.5h9.2c0.5,0,0.9,0.1,1.2,0.4
			c0.3,0.3,0.4,0.6,0.4,1.1c0,0.4-0.1,0.8-0.4,1.1c-0.3,0.3-0.7,0.4-1.2,0.4H99c-0.7,0-1.2-0.1-1.6-0.4c-0.4-0.3-0.6-0.6-0.6-1
			s0.2-0.8,0.6-1.1s0.9-0.4,1.6-0.4h9L107.9,57.6L107.9,57.6z"/>
		<path class="st1" d="M271.8,121.8v42.5c0,24.5-4.9,42.4-14.6,53.7c-6.8,7.8-15.2,11.8-25.4,11.8c-6.9,0-13.2-2-19-5.9
			s-10.3-9.7-13.6-17.3c-5.3-12.2-8-25.8-8-40.7v-49.8c0-23.2,4.9-40.4,14.6-51.7c6.8-7.8,15.1-11.6,25.1-11.6
			c4.8,0,9.3,0.9,13.3,2.6s7.7,4.3,10.9,7.6c3.2,3.3,6.1,7.8,8.6,13.3c2.6,5.5,4.4,11.2,5.4,17.1
			C270.9,103.5,271.8,112.9,271.8,121.8z M221.8,210.9c0,6,1.2,10.3,3.5,13c1.7,1.9,3.9,2.9,6.4,2.9c2.4,0,4.5-0.9,6.4-2.6
			c1.8-1.7,2.8-4.2,2.8-7.4V69c0-4.2-1.2-7.5-3.6-9.9c-1.6-1.8-3.7-2.7-6.2-2.7c-2.2,0-4.2,0.8-5.8,2.5c-2.2,2.3-3.3,5.6-3.3,10v142
			H221.8z"/>
		<path class="st1" d="M350.9,68.9c0-3.5-0.6-6.1-1.7-7.6c-1.2-1.5-2.9-2.6-5.4-3.2l-6.2-0.5c-0.5-0.2-0.7-0.6-0.7-1.3
			c0-0.6,0.1-1,0.4-1.3c0.2-0.2,0.8-0.3,1.8-0.3h25.6c0.4,0,0.7,0.1,0.9,0.4c0.2,0.3,0.4,0.6,0.4,1s-0.1,0.7-0.4,0.9
			c-0.2,0.2-1.1,0.5-2.5,1c-3,0.9-5.1,2.1-6.2,3.6c-1.2,1.5-1.9,4.3-2.2,8.4v158.2h-22.4l-36.1-158v143.1c0,3.9,0.5,6.7,1.6,8.2
			c1.1,1.6,2.8,2.7,5.2,3.3l6.5,0.5c0.5,0.2,0.7,0.7,0.7,1.4c0,0.6-0.1,1-0.4,1.2c-0.2,0.2-0.8,0.3-1.8,0.3h-25.6
			c-0.4,0-0.7-0.1-0.9-0.3c-0.2-0.2-0.4-0.5-0.4-0.9s0.1-0.7,0.4-0.9c0.2-0.2,1.1-0.5,2.5-1c3-0.9,5-2.1,6.2-3.6
			c1.1-1.5,1.8-4.3,2.1-8.5V57.6h-8.1c-0.5,0-0.9-0.1-1.2-0.4c-0.3-0.3-0.5-0.6-0.5-1.1c0-0.4,0.2-0.7,0.5-1s0.7-0.4,1.2-0.4h37.5
			L351,181.5L350.9,68.9L350.9,68.9z"/>
		<path class="st1" d="M381.3,57.6h-8.7c-0.5,0-0.9-0.1-1.2-0.4c-0.3-0.3-0.4-0.6-0.4-1c0-0.5,0.1-0.8,0.4-1.1s0.7-0.4,1.2-0.4h47.1
			c0.5,0,0.9,0.1,1.2,0.4c0.3,0.3,0.5,0.6,0.5,1c0,0.5-0.2,0.8-0.5,1.1s-0.7,0.4-1.2,0.4H411v167.6h8.7c1,0.5,1.4,1,1.4,1.4
			c0,0.5-0.5,1-1.4,1.4h-48.2c-1.1-0.5-1.6-1-1.6-1.4s0.5-0.9,1.6-1.4h9.9V57.6H381.3z"/>
		<path class="st1" d="M491.1,65.7l9.6-10.7c0.8-0.9,1.5-1.4,2.3-1.4c0.3,0,0.5,0.1,0.7,0.2c0.2,0.2,0.3,0.4,0.3,0.8v68.8
			c0,0.4-0.2,0.7-0.5,0.9c-0.3,0.2-0.7,0.3-1.2,0.3c-0.7,0-1.1-0.2-1.3-0.5c-0.2-0.2-0.5-2.3-0.9-6.1c-3.3-27.9-8.2-46.2-14.8-54.9
			c-3.8-4.8-8.2-7.3-13.3-7.3c-2.8,0-5.2,1-7.1,3s-2.9,5.6-2.9,10.7v149.1c0,2.5,0.9,4.4,2.6,5.8c1.7,1.4,3.9,2.1,6.5,2.1
			c2.8,0,5-0.8,6.7-2.4c2.2-2.3,3.3-5.4,3.3-9.3v-64.2h-7.5c-0.5,0-0.9-0.1-1.2-0.4c-0.3-0.3-0.5-0.6-0.5-1c0-0.5,0.2-0.9,0.5-1.1
			c0.3-0.3,0.7-0.4,1.2-0.4h42.2c0.5,0,0.9,0.1,1.2,0.4c0.3,0.3,0.4,0.6,0.4,1.1c0,0.4-0.1,0.7-0.4,1c-0.3,0.3-0.7,0.4-1.2,0.4h-6.5
			V228c0,0.6-0.1,1.1-0.4,1.4c-0.2,0.2-0.5,0.3-0.9,0.3s-0.7-0.1-1.1-0.3c-0.3-0.2-0.7-0.7-1.1-1.4l-8.3-16.2
			c-5.6,7.6-10.2,12.5-13.8,14.7c-3.6,2.2-7.8,3.3-12.5,3.3c-13.1,0-23.1-5.9-29.8-17.6c-6.8-11.8-10.1-27.7-10.1-47.7v-42.9
			c0-20.5,3.6-37.1,10.9-49.8c7.2-12.6,16.7-19,28.2-19C478.6,52.8,485.6,57.1,491.1,65.7z"/>
		<path class="st1" d="M533.5,225.2V57.6H524c-1.1-0.5-1.6-1-1.6-1.5c0-0.4,0.5-0.8,1.6-1.4h43.9c1.1,0.5,1.6,1,1.6,1.4
			c0,0.5-0.5,1-1.6,1.5h-4.6v78.9h18.5V57.6h-6.1c-1.1-0.5-1.6-1-1.6-1.5s0.5-0.9,1.6-1.4h44.8c1.1,0.5,1.6,1,1.6,1.4
			c0,0.5-0.5,1-1.6,1.5h-8.7v167.6h8.7c0.5,0,0.9,0.1,1.3,0.4c0.4,0.3,0.6,0.6,0.6,1.1c0,0.4-0.2,0.8-0.6,1.1
			c-0.4,0.3-0.8,0.4-1.3,0.4H577c-0.5,0-0.9-0.1-1.2-0.4c-0.3-0.3-0.5-0.6-0.5-1.1c0-0.4,0.2-0.8,0.5-1.1s0.8-0.4,1.3-0.4h4.7v-86
			h-18.5v86h5.7c0.5,0,0.9,0.1,1.2,0.4c0.3,0.3,0.5,0.6,0.5,1.1c0,0.4-0.2,0.8-0.5,1.1s-0.7,0.4-1.2,0.4h-45c-1.1-0.5-1.6-1-1.6-1.4
			s0.5-0.9,1.6-1.4h9.5V225.2z"/>
		<path class="st1" d="M661.7,57.7h-3c-2.1,0-4,0.5-5.5,1.6c-2.3,1.6-4.6,5.2-6.8,10.7c-3.6,8.8-6.6,19.4-9.1,31.7
			s-3.8,20.1-3.8,23.4v2.6c0,0.6-0.2,1.1-0.6,1.4c-0.4,0.3-0.8,0.5-1.3,0.5c-0.6,0-1-0.2-1.3-0.5c-0.5-0.5-0.7-1-0.7-1.5V54.7h94v73
			c0,0.5-0.2,1-0.6,1.3c-0.4,0.3-0.9,0.5-1.4,0.5s-0.9-0.2-1.3-0.5c-0.4-0.3-0.6-0.8-0.6-1.3v-4.5c0-4.4-1.4-12.5-4.1-24.4
			c-2.8-11.9-5.9-21.9-9.5-30.1c-2.3-5.2-4.2-8.4-5.7-9.4c-1.5-1.1-2.9-1.6-4.3-1.6h-4.6v167.5h11.3c1.1,0.5,1.6,1,1.6,1.4
			s-0.5,0.9-1.6,1.4h-53.6c-0.5,0-0.9-0.1-1.2-0.4c-0.3-0.3-0.4-0.6-0.4-1.1c0-0.4,0.1-0.8,0.4-1.1s0.7-0.4,1.2-0.4h12.6V57.7H661.7
			z"/>
	</g>
	<path class="st1" d="M875.2,27.1c-3.1-14.5-23.9-25.7-49-25.7s-45.9,11.2-49,25.7c14.6-1.4,31.3-2.2,49-2.2S860.6,25.7,875.2,27.1z
		"/>
	<path class="st1" d="M929.5,44.1c-3.1-9.2-48.1-16.5-103.1-16.5c-54.8,0-99.7,7.2-103.1,16.4v0.1c-0.1,0.3-0.2,0.7-0.2,1
		c0,2.9,4,5.6,11.2,7.9c5.2,1.7,12,3.3,20.1,4.6c12.8-4.5,40.2-7.6,72-7.6s59.2,3.1,72,7.6c8.3-1.4,15.2-3,20.4-4.7
		c7-2.4,10.9-5,10.9-7.8C929.6,44.7,929.6,44.4,929.5,44.1z"/>
	<path class="st1" d="M906,70.3c0-0.2,0-0.3-0.1-0.5c-0.4-1.8-3.1-3.4-7.5-4.9c-12.8-4.3-40.2-7.3-72-7.3s-59.3,3-72,7.3
		c-4.6,1.6-7.3,3.3-7.6,5.1c0,0.1,0,0.2,0,0.3c0,4.2,13.1,8,33.2,10.3c1.8,0.2,3.6,0.4,5.4,0.6l-26.9,140.2v0.1
		c0,5.1,29.6,9.3,66.9,9.6c0.7,0,1.5,0,2.2,0s1.5,0,2.2,0c37.3-0.3,66.9-4.5,66.9-9.6v-0.1l-27-140.5c1-0.1,1.9-0.2,2.9-0.3
		C892.8,78.3,906,74.5,906,70.3z"/>
</g>
</svg>
