<svg id="Layer_1" data-name="Layer 1" xmlns="http://www.w3.org/2000/svg" viewBox="0 0 933.03 277.65">
  <defs>
    <style>
      .cls-1, .cls-2, .cls-3 {
        fill: #fff;
      }

      .cls-2, .cls-3 {
        isolation: isolate;
        font-family: Onyx;
      }

      .cls-2 {
        font-size: 236.13px;
      }

      .cls-3 {
        font-size: 34.28px;
      }
    </style>
  </defs>
  <g id="Layer_1-2" data-name="Layer 1">
    <g>
      <path class="cls-1" d="M826.1,63.2c-24,0-43.5,3.1-43.5,6.9S802.1,77,826.1,77s43.5-3.1,43.5-6.9S850.1,63.2,826.1,63.2Z" transform="translate(3.33 -1.4)"/>
      <path class="cls-1" d="M875.2,27.1c-3.1-14.5-23.9-25.7-49-25.7s-45.9,11.2-49,25.7c14.6-1.4,31.3-2.2,49-2.2S860.6,25.7,875.2,27.1Z" transform="translate(3.33 -1.4)"/>
      <path class="cls-1" d="M929.5,44.1h0c-3.1-9.2-48.1-16.5-103.1-16.5-54.8,0-99.7,7.2-103.1,16.4v.1a3.55,3.55,0,0,0-.2,1c0,2.9,4,5.6,11.2,7.9a135.53,135.53,0,0,0,20.1,4.6c12.8-4.5,40.2-7.6,72-7.6s59.2,3.1,72,7.6a146.34,146.34,0,0,0,20.4-4.7c7-2.4,10.9-5,10.9-7.8C929.6,44.7,929.6,44.4,929.5,44.1Z" transform="translate(3.33 -1.4)"/>
      <path class="cls-1" d="M898.2,61.8c-12.8-4.3-40.2-7.3-72-7.3s-59.3,3-72,7.3c-4.6,1.6-7.3,3.3-7.6,5.1v.3c0,4.2,13.1,8,33.2,10.3l5.4.6L758.3,218.3h0v.1c0,5.1,29.6,9.3,66.9,9.6h4.4c37.3-.3,66.9-4.5,66.9-9.6v-.1h0l-27-140.5,2.9-.3c20.2-2.3,33.4-6.1,33.4-10.3a.9.9,0,0,0-.1-.5C905.3,64.9,902.6,63.3,898.2,61.8ZM826.1,77.1c-24,0-43.5-3.1-43.5-6.9s19.5-6.9,43.5-6.9,43.5,3.1,43.5,6.9S850.1,77.1,826.1,77.1Z" transform="translate(3.33 -1.4)"/>
    </g>
  </g>
  <g id="Layer_2" data-name="Layer 2">
    <text class="cls-2" transform="translate(0 226.69) scale(1.26 1)">UFONIGHT</text>
    <text class="cls-3" transform="translate(7.52 256.77) scale(2.12 1)">WE BELIEVE</text>
  </g>
</svg>
