<?xml version="1.0" encoding="utf-8"?>
<!-- Generator: Adobe Illustrator 24.1.2, SVG Export Plug-In . SVG Version: 6.00 Build 0)  -->
<svg version="1.1" id="Layer_1" xmlns="http://www.w3.org/2000/svg" xmlns:xlink="http://www.w3.org/1999/xlink" x="0px" y="0px"
	 viewBox="0 0 932.4 259.2" style="enable-background:new 0 0 932.4 259.2;" xml:space="preserve">
<style type="text/css">
	.st0{enable-background:new    ;}
</style>
<g id="Layer_2_1_">
	<g class="st0">
		<path d="M10.1,57.6H1.6C0.5,57,0,56.5,0,56.1c0-0.4,0.5-0.9,1.6-1.4H48c0.5,0,0.9,0.1,1.2,0.4c0.3,0.3,0.4,0.6,0.4,0.9
			c0,0.5-0.1,0.9-0.4,1.2c-0.3,0.3-0.7,0.4-1.2,0.4h-8.1v158.8c0,3.2,1.1,5.7,3.4,7.5c2.2,1.8,5.3,2.7,9.1,2.7
			c6.9,0,12.6-2.2,17.2-6.5c4.5-4.3,6.8-11.2,6.8-20.6V72.4c0-5.8-0.6-9.4-1.8-11c-1.2-1.6-3.5-2.7-6.9-3.3
			c-1.7-0.3-2.9-0.7-3.4-1.1c-0.5-0.4-0.8-0.9-0.8-1.3l0.3-0.8l1.2-0.2h22.8c0.6,0,1.3,0.4,2.2,1.2c0,0.4-0.2,0.7-0.7,1
			c-0.4,0.3-1.2,0.5-2.2,0.7c-1.9,0.2-3.4,1.1-4.5,2.7c-1.8,2.5-2.8,6.5-2.8,12.1v130.3c0,8.9-2.9,15.7-8.6,20.3
			c-5.7,4.6-14,6.9-24.8,6.9c-13.6,0-23.5-2.8-29.6-8.3c-4.3-3.9-6.4-11.3-6.4-22.2V57.6z"/>
		<path d="M107.9,57.6h-9c-1.1-0.5-1.6-1-1.6-1.4c0-0.5,0.5-1,1.6-1.5h80v64.1c0,0.4-0.1,0.7-0.4,0.9c-0.3,0.2-0.6,0.3-1.1,0.3
			c-0.6,0-1-0.2-1.2-0.5c-0.3-0.3-0.5-1.5-0.6-3.6c-0.5-9.5-2.5-19.7-6.1-30.6c-3.6-10.9-7-18.2-10.2-22.2c-1.6-2-3.6-3.4-6-4.3
			s-5.9-1.3-10.8-1.3h-4.9v81.1c4.6-0.3,8.5-2.5,11.7-6.6c4.9-6.2,7.3-15.9,7.3-28.9v-6.3c0-0.5,0.1-0.8,0.5-1
			c0.3-0.2,0.7-0.3,1.2-0.3c0.5,0,0.9,0.1,1.2,0.4c0.3,0.3,0.5,0.6,0.5,1v86.5c0,0.5-0.2,0.8-0.5,1c-0.3,0.2-0.7,0.3-1.2,0.3
			l-1.1-0.3c-0.4-0.3-0.6-0.7-0.6-1v-10.3c0-11.1-2.4-19.6-7.2-25.5c-3.1-3.8-7.1-5.7-11.8-5.9v83.5h9.2c0.5,0,0.9,0.1,1.2,0.4
			c0.3,0.3,0.4,0.6,0.4,1.1c0,0.4-0.1,0.8-0.4,1.1c-0.3,0.3-0.7,0.4-1.2,0.4H99c-0.7,0-1.2-0.1-1.6-0.4c-0.4-0.3-0.6-0.6-0.6-1
			c0-0.4,0.2-0.8,0.6-1.1c0.4-0.3,0.9-0.4,1.6-0.4h9V57.6z"/>
		<path d="M271.8,121.8v42.5c0,24.5-4.9,42.4-14.6,53.7c-6.8,7.8-15.2,11.8-25.4,11.8c-6.9,0-13.2-2-19-5.9
			c-5.8-3.9-10.3-9.7-13.6-17.3c-5.3-12.2-8-25.8-8-40.7v-49.8c0-23.2,4.9-40.4,14.6-51.7c6.8-7.8,15.1-11.6,25.1-11.6
			c4.8,0,9.3,0.9,13.3,2.6s7.7,4.3,10.9,7.6s6.1,7.8,8.6,13.3c2.6,5.5,4.4,11.2,5.4,17.1C270.9,103.5,271.8,112.9,271.8,121.8z
			 M221.8,210.9c0,6,1.2,10.3,3.5,13c1.7,1.9,3.9,2.9,6.4,2.9c2.4,0,4.5-0.9,6.4-2.6c1.8-1.7,2.8-4.2,2.8-7.4V69
			c0-4.2-1.2-7.5-3.6-9.9c-1.6-1.8-3.7-2.7-6.2-2.7c-2.2,0-4.2,0.8-5.8,2.5c-2.2,2.3-3.3,5.6-3.3,10V210.9z"/>
		<path d="M350.9,68.9c0-3.5-0.6-6.1-1.7-7.6c-1.2-1.5-2.9-2.6-5.4-3.2l-6.2-0.5c-0.5-0.2-0.7-0.6-0.7-1.3c0-0.6,0.1-1,0.4-1.3
			c0.2-0.2,0.8-0.3,1.8-0.3h25.6c0.4,0,0.7,0.1,0.9,0.4c0.2,0.3,0.4,0.6,0.4,1c0,0.4-0.1,0.7-0.4,0.9c-0.2,0.2-1.1,0.5-2.5,1
			c-3,0.9-5.1,2.1-6.2,3.6c-1.2,1.5-1.9,4.3-2.2,8.4v158.2h-22.4l-36.1-158v143.1c0,3.9,0.5,6.7,1.6,8.2c1.1,1.6,2.8,2.7,5.2,3.3
			l6.5,0.5c0.5,0.2,0.7,0.7,0.7,1.4c0,0.6-0.1,1-0.4,1.2c-0.2,0.2-0.8,0.3-1.8,0.3h-25.6c-0.4,0-0.7-0.1-0.9-0.3
			c-0.2-0.2-0.4-0.5-0.4-0.9c0-0.4,0.1-0.7,0.4-0.9c0.2-0.2,1.1-0.5,2.5-1c3-0.9,5-2.1,6.2-3.6c1.1-1.5,1.8-4.3,2.1-8.5V57.6h-8.1
			c-0.5,0-0.9-0.1-1.2-0.4c-0.3-0.3-0.5-0.6-0.5-1.1c0-0.4,0.2-0.7,0.5-1c0.3-0.3,0.7-0.4,1.2-0.4h37.5l29.3,126.8V68.9z"/>
		<path d="M381.3,57.6h-8.7c-0.5,0-0.9-0.1-1.2-0.4c-0.3-0.3-0.4-0.6-0.4-1c0-0.5,0.1-0.8,0.4-1.1c0.3-0.3,0.7-0.4,1.2-0.4h47.1
			c0.5,0,0.9,0.1,1.2,0.4c0.3,0.3,0.5,0.6,0.5,1c0,0.5-0.2,0.8-0.5,1.1c-0.3,0.3-0.7,0.4-1.2,0.4H411v167.6h8.7c1,0.5,1.4,1,1.4,1.4
			c0,0.5-0.5,1-1.4,1.4h-48.2c-1.1-0.5-1.6-1-1.6-1.4c0-0.4,0.5-0.9,1.6-1.4h9.9V57.6z"/>
		<path d="M491.1,65.7l9.6-10.7c0.8-0.9,1.5-1.4,2.3-1.4c0.3,0,0.5,0.1,0.7,0.2c0.2,0.2,0.3,0.4,0.3,0.8v68.8c0,0.4-0.2,0.7-0.5,0.9
			c-0.3,0.2-0.7,0.3-1.2,0.3c-0.7,0-1.1-0.2-1.3-0.5c-0.2-0.2-0.5-2.3-0.9-6.1c-3.3-27.9-8.2-46.2-14.8-54.9
			c-3.8-4.8-8.2-7.3-13.3-7.3c-2.8,0-5.2,1-7.1,3c-1.9,2-2.9,5.6-2.9,10.7v149.1c0,2.5,0.9,4.4,2.6,5.8c1.7,1.4,3.9,2.1,6.5,2.1
			c2.8,0,5-0.8,6.7-2.4c2.2-2.3,3.3-5.4,3.3-9.3v-64.2h-7.5c-0.5,0-0.9-0.1-1.2-0.4c-0.3-0.3-0.5-0.6-0.5-1c0-0.5,0.2-0.9,0.5-1.1
			c0.3-0.3,0.7-0.4,1.2-0.4h42.2c0.5,0,0.9,0.1,1.2,0.4c0.3,0.3,0.4,0.6,0.4,1.1c0,0.4-0.1,0.7-0.4,1c-0.3,0.3-0.7,0.4-1.2,0.4h-6.5
			v77.4c0,0.6-0.1,1.1-0.4,1.4c-0.2,0.2-0.5,0.3-0.9,0.3c-0.4,0-0.7-0.1-1.1-0.3c-0.3-0.2-0.7-0.7-1.1-1.4l-8.3-16.2
			c-5.6,7.6-10.2,12.5-13.8,14.7c-3.6,2.2-7.8,3.3-12.5,3.3c-13.1,0-23.1-5.9-29.8-17.6c-6.8-11.8-10.1-27.7-10.1-47.7v-42.9
			c0-20.5,3.6-37.1,10.9-49.8c7.2-12.6,16.7-19,28.2-19C478.6,52.8,485.6,57.1,491.1,65.7z"/>
		<path d="M533.5,225.2V57.6H524c-1.1-0.5-1.6-1-1.6-1.5c0-0.4,0.5-0.8,1.6-1.4h43.9c1.1,0.5,1.6,1,1.6,1.4c0,0.5-0.5,1-1.6,1.5
			h-4.6v78.9h18.5V57.6h-6.1c-1.1-0.5-1.6-1-1.6-1.5c0-0.5,0.5-0.9,1.6-1.4h44.8c1.1,0.5,1.6,1,1.6,1.4c0,0.5-0.5,1-1.6,1.5h-8.7
			v167.6h8.7c0.5,0,0.9,0.1,1.3,0.4c0.4,0.3,0.6,0.6,0.6,1.1c0,0.4-0.2,0.8-0.6,1.1c-0.4,0.3-0.8,0.4-1.3,0.4H577
			c-0.5,0-0.9-0.1-1.2-0.4c-0.3-0.3-0.5-0.6-0.5-1.1c0-0.4,0.2-0.8,0.5-1.1c0.3-0.3,0.8-0.4,1.3-0.4h4.7v-86h-18.5v86h5.7
			c0.5,0,0.9,0.1,1.2,0.4c0.3,0.3,0.5,0.6,0.5,1.1c0,0.4-0.2,0.8-0.5,1.1c-0.3,0.3-0.7,0.4-1.2,0.4H524c-1.1-0.5-1.6-1-1.6-1.4
			c0-0.4,0.5-0.9,1.6-1.4H533.5z"/>
		<path d="M661.7,57.7h-3c-2.1,0-4,0.5-5.5,1.6c-2.3,1.6-4.6,5.2-6.8,10.7c-3.6,8.8-6.6,19.4-9.1,31.7c-2.5,12.3-3.8,20.1-3.8,23.4
			v2.6c0,0.6-0.2,1.1-0.6,1.4c-0.4,0.3-0.8,0.5-1.3,0.5c-0.6,0-1-0.2-1.3-0.5c-0.5-0.5-0.7-1-0.7-1.5V54.7h94v73
			c0,0.5-0.2,1-0.6,1.3c-0.4,0.3-0.9,0.5-1.4,0.5c-0.5,0-0.9-0.2-1.3-0.5c-0.4-0.3-0.6-0.8-0.6-1.3v-4.5c0-4.4-1.4-12.5-4.1-24.4
			c-2.8-11.9-5.9-21.9-9.5-30.1c-2.3-5.2-4.2-8.4-5.7-9.4c-1.5-1.1-2.9-1.6-4.3-1.6h-4.6v167.5h11.3c1.1,0.5,1.6,1,1.6,1.4
			c0,0.4-0.5,0.9-1.6,1.4h-53.6c-0.5,0-0.9-0.1-1.2-0.4c-0.3-0.3-0.4-0.6-0.4-1.1c0-0.4,0.1-0.8,0.4-1.1s0.7-0.4,1.2-0.4h12.6V57.7z
			"/>
	</g>
	<g class="st0">
		<path d="M6.6,233.4H4.9c-0.3-0.1-0.4-0.1-0.4-0.2s0.1-0.1,0.4-0.2h11c0.1,0,0.2,0,0.3,0.1c0.1,0,0.1,0.1,0.1,0.2s0,0.1-0.1,0.2
			c-0.1,0-0.2,0.1-0.3,0.1H14l3.4,16.9l3.5-15.4l-0.4-1.5h-1.8c-0.1,0-0.2,0-0.3-0.1c-0.1,0-0.1-0.1-0.1-0.2s0-0.1,0.1-0.2
			c0.1,0,0.2-0.1,0.3-0.1h11.1c0.3,0.1,0.4,0.1,0.4,0.2s-0.1,0.1-0.4,0.2h-2l3.4,16.9l3.5-15c0-0.2,0-0.3,0-0.5
			c0-0.4-0.1-0.7-0.4-0.9c-0.2-0.2-0.6-0.4-1-0.5l-1.1-0.1c-0.1,0-0.2-0.1-0.2-0.2c0-0.1,0.1-0.1,0.4-0.2h5.9
			c0.3,0.1,0.4,0.1,0.4,0.2c0,0.1,0,0.1-0.1,0.1c-0.1,0-0.2,0.1-0.3,0.1c-0.6,0-1.2,0.2-1.6,0.5c-0.7,0.4-1.1,0.9-1.2,1.6l-4.7,20.8
			c-0.2,1-0.4,1.5-0.6,1.7c-0.1,0.1-0.3,0.2-0.6,0.2h-2.5c-0.4,0-0.6-0.1-0.8-0.2l-0.4-1.9l-4.5-19.2l-4.3,19.4
			c-0.2,1.1-0.4,1.6-0.5,1.7c-0.1,0.1-0.4,0.2-0.9,0.2H13c-0.3,0-0.5-0.1-0.6-0.2c-0.1-0.1-0.2-0.6-0.5-1.5L6.6,233.4z"/>
		<path d="M42.3,233.4H40c-0.2-0.1-0.4-0.1-0.4-0.2c0-0.1,0.1-0.2,0.4-0.2h20.2v9.3c-0.1,0.1-0.3,0.2-0.4,0.2c-0.1,0-0.2,0-0.3-0.1
			c-0.1,0-0.1-0.2-0.1-0.5c-0.2-1.8-0.8-3.6-1.9-5.2c-1.1-1.6-2.1-2.6-3.1-3c-0.5-0.2-1.4-0.3-2.6-0.3h-2.2v11.8
			c1.3-0.1,2.4-0.4,3.3-1c1.1-0.8,1.7-2.1,1.7-3.7v-1.3c0-0.1,0-0.1,0.1-0.1c0.1,0,0.2-0.1,0.3-0.1c0.1,0,0.2,0,0.3,0.1
			s0.1,0.1,0.1,0.1v12.4c0,0.1,0,0.1-0.1,0.1s-0.2,0.1-0.3,0.1c-0.1,0-0.2,0-0.3-0.1c-0.1,0-0.1-0.1-0.1-0.1v-1.2
			c0-1.7-0.6-3-1.9-3.9c-0.8-0.6-1.5-0.8-2.4-0.8c-0.2,0-0.4,0-0.5,0.1c-0.1,0.1-0.2,0.2-0.2,0.4v11.7h1.1c1,0,1.9-0.2,2.9-0.5
			c0.9-0.3,1.8-0.9,2.7-1.8c0.8-0.8,1.5-1.8,1.9-2.8c0.7-1.6,1.1-2.9,1.1-3.8v-1.1c0.2-0.1,0.3-0.2,0.5-0.2s0.3,0,0.3,0.1
			c0.1,0,0.1,0.1,0.1,0.1v10.3H40c-0.2,0-0.3,0-0.4-0.1c-0.1,0-0.1-0.1-0.1-0.1c0-0.1,0-0.1,0.1-0.2c0.1,0,0.2-0.1,0.4-0.1h2.3
			V233.4z"/>
		<path d="M74.4,257.8v-24.3H72c-0.3-0.1-0.4-0.2-0.4-0.2c0-0.1,0.1-0.1,0.4-0.2h10.5c3.2,0,5.8,0.5,7.9,1.6s3.1,2.5,3.1,4.4
			c0,1.2-0.3,2.2-1,3c-0.7,0.8-1.8,1.5-3.2,2.1c-0.9,0.4-2.3,0.7-4.2,1c1.9,0.3,3.4,0.7,4.3,1c1.5,0.6,2.6,1.3,3.3,2.1
			c0.8,0.8,1.1,1.8,1.1,3c0,1.5-0.6,2.9-1.7,4.1c-0.8,0.8-2,1.5-3.7,2.1c-1.7,0.6-3.8,0.8-6.2,0.8H72c-0.3-0.1-0.4-0.1-0.4-0.2
			s0.1-0.1,0.4-0.2H74.4z M81.6,233.4v11.5h1.9c0.9,0,1.5-0.1,1.9-0.3c0.4-0.2,0.6-0.5,0.6-1v-8.7c0-0.6-0.2-1-0.6-1.2
			s-1.3-0.3-2.5-0.3H81.6z M81.6,245.4v12.4h1.1c1,0,1.8-0.1,2.4-0.4c0.6-0.3,0.9-0.6,0.9-1.1v-9.7c0-0.4-0.2-0.7-0.5-0.9
			c-0.3-0.2-0.9-0.3-1.6-0.3H81.6z"/>
		<path d="M98.2,233.4h-2.3c-0.2-0.1-0.4-0.1-0.4-0.2c0-0.1,0.1-0.2,0.4-0.2h20.2v9.3c-0.1,0.1-0.3,0.2-0.4,0.2
			c-0.1,0-0.2,0-0.3-0.1c-0.1,0-0.1-0.2-0.1-0.5c-0.2-1.8-0.8-3.6-1.9-5.2c-1.1-1.6-2.1-2.6-3.1-3c-0.5-0.2-1.4-0.3-2.6-0.3h-2.2
			v11.8c1.3-0.1,2.4-0.4,3.3-1c1.1-0.8,1.7-2.1,1.7-3.7v-1.3c0-0.1,0-0.1,0.1-0.1c0.1,0,0.2-0.1,0.3-0.1c0.1,0,0.2,0,0.3,0.1
			s0.1,0.1,0.1,0.1v12.4c0,0.1,0,0.1-0.1,0.1s-0.2,0.1-0.3,0.1c-0.1,0-0.2,0-0.3-0.1c-0.1,0-0.1-0.1-0.1-0.1v-1.2
			c0-1.7-0.6-3-1.9-3.9c-0.8-0.6-1.5-0.8-2.4-0.8c-0.2,0-0.4,0-0.5,0.1c-0.1,0.1-0.2,0.2-0.2,0.4v11.7h1.1c1,0,1.9-0.2,2.9-0.5
			c0.9-0.3,1.8-0.9,2.7-1.8c0.8-0.8,1.5-1.8,1.9-2.8c0.7-1.6,1.1-2.9,1.1-3.8v-1.1c0.2-0.1,0.3-0.2,0.5-0.2s0.3,0,0.3,0.1
			c0.1,0,0.1,0.1,0.1,0.1v10.3H96c-0.2,0-0.3,0-0.4-0.1c-0.1,0-0.1-0.1-0.1-0.1c0-0.1,0-0.1,0.1-0.2c0.1,0,0.2-0.1,0.4-0.1h2.3
			V233.4z"/>
		<path d="M120.2,233.4H118c-0.3-0.1-0.4-0.1-0.4-0.2c0-0.1,0.1-0.1,0.4-0.2h11.8c0.1,0,0.2,0,0.3,0.1c0.1,0,0.1,0.1,0.1,0.1
			c0,0.1,0,0.1-0.1,0.2c-0.1,0-0.2,0.1-0.3,0.1h-2.3v24.3h1.5c1.1,0,2-0.1,2.8-0.4c0.8-0.3,1.6-0.9,2.4-1.8c1.1-1.3,1.9-2.8,2.4-4.3
			c0.5-1.6,0.8-2.6,0.8-3c0-0.2,0.1-0.3,0.1-0.3l0.3,0l0.3,0c0.1,0,0.1,0.1,0.1,0.2l-0.3,10.1H118c-0.1,0-0.2,0-0.3-0.1
			c-0.1,0-0.1-0.1-0.1-0.2s0-0.1,0.1-0.2c0.1,0,0.2-0.1,0.3-0.1h2.2V233.4z"/>
		<path d="M142.3,233.4h-2.1c-0.1,0-0.2,0-0.3-0.1c-0.1,0-0.1-0.1-0.1-0.1c0-0.1,0-0.1,0.1-0.2c0.1,0,0.2-0.1,0.3-0.1h11.5
			c0.1,0,0.2,0,0.3,0.1c0.1,0,0.1,0.1,0.1,0.1c0,0.1,0,0.1-0.1,0.2c-0.1,0-0.2,0.1-0.3,0.1h-2.1v24.3h2.1c0.2,0.1,0.4,0.1,0.4,0.2
			c0,0.1-0.1,0.1-0.4,0.2h-11.8c-0.3-0.1-0.4-0.1-0.4-0.2s0.1-0.1,0.4-0.2h2.4V233.4z"/>
		<path d="M156.4,233.4h-2.3c-0.2-0.1-0.4-0.1-0.4-0.2c0-0.1,0.1-0.2,0.4-0.2h20.2v9.3c-0.1,0.1-0.3,0.2-0.4,0.2
			c-0.1,0-0.2,0-0.3-0.1c-0.1,0-0.1-0.2-0.1-0.5c-0.2-1.8-0.8-3.6-1.9-5.2c-1.1-1.6-2.1-2.6-3.1-3c-0.5-0.2-1.4-0.3-2.6-0.3h-2.2
			v11.8c1.3-0.1,2.4-0.4,3.3-1c1.1-0.8,1.7-2.1,1.7-3.7v-1.3c0-0.1,0-0.1,0.1-0.1c0.1,0,0.2-0.1,0.3-0.1c0.1,0,0.2,0,0.3,0.1
			s0.1,0.1,0.1,0.1v12.4c0,0.1,0,0.1-0.1,0.1s-0.2,0.1-0.3,0.1c-0.1,0-0.2,0-0.3-0.1c-0.1,0-0.1-0.1-0.1-0.1v-1.2
			c0-1.7-0.6-3-1.9-3.9c-0.8-0.6-1.5-0.8-2.4-0.8c-0.2,0-0.4,0-0.5,0.1c-0.1,0.1-0.2,0.2-0.2,0.4v11.7h1.1c1,0,1.9-0.2,2.9-0.5
			c0.9-0.3,1.8-0.9,2.7-1.8c0.8-0.8,1.5-1.8,1.9-2.8c0.7-1.6,1.1-2.9,1.1-3.8v-1.1c0.2-0.1,0.3-0.2,0.5-0.2s0.3,0,0.3,0.1
			c0.1,0,0.1,0.1,0.1,0.1v10.3h-20.2c-0.2,0-0.3,0-0.4-0.1c-0.1,0-0.1-0.1-0.1-0.1c0-0.1,0-0.1,0.1-0.2c0.1,0,0.2-0.1,0.4-0.1h2.3
			V233.4z"/>
		<path d="M177.8,233.4H176c-0.1,0-0.2,0-0.3-0.1c-0.1,0-0.1-0.1-0.1-0.2s0-0.1,0.1-0.2c0.1,0,0.2-0.1,0.3-0.1h11.3
			c0.1,0,0.2,0,0.3,0.1c0.1,0,0.1,0.1,0.1,0.2s0,0.1-0.1,0.2c-0.1,0-0.2,0.1-0.3,0.1h-2.2l3.1,18.5l4.2-16.8c0-0.2,0.1-0.3,0.1-0.5
			c0-0.4-0.1-0.6-0.3-0.8s-0.5-0.3-0.9-0.4l-1.1-0.1c-0.1,0-0.2-0.1-0.2-0.2c0-0.1,0.1-0.1,0.4-0.2h5.4c0.1,0,0.2,0,0.3,0
			c0.1,0,0.1,0.1,0.1,0.1c0,0.1,0,0.1-0.1,0.1c-0.1,0-0.2,0.1-0.3,0.1c-0.6,0-1,0.2-1.3,0.4c-0.5,0.3-0.8,0.9-1,1.7l-5.4,21.2
			c-0.2,0.9-0.4,1.3-0.5,1.4s-0.3,0.1-0.5,0.1h-3.4c-0.2,0-0.3,0-0.4-0.1s-0.3-0.7-0.5-1.9L177.8,233.4z"/>
		<path d="M199.2,233.4h-2.3c-0.2-0.1-0.4-0.1-0.4-0.2c0-0.1,0.1-0.2,0.4-0.2h20.2v9.3c-0.1,0.1-0.3,0.2-0.4,0.2
			c-0.1,0-0.2,0-0.3-0.1c-0.1,0-0.1-0.2-0.1-0.5c-0.2-1.8-0.8-3.6-1.9-5.2c-1.1-1.6-2.1-2.6-3.1-3c-0.5-0.2-1.4-0.3-2.6-0.3h-2.2
			v11.8c1.3-0.1,2.4-0.4,3.3-1c1.1-0.8,1.7-2.1,1.7-3.7v-1.3c0-0.1,0-0.1,0.1-0.1c0.1,0,0.2-0.1,0.3-0.1c0.1,0,0.2,0,0.3,0.1
			s0.1,0.1,0.1,0.1v12.4c0,0.1,0,0.1-0.1,0.1s-0.2,0.1-0.3,0.1c-0.1,0-0.2,0-0.3-0.1c-0.1,0-0.1-0.1-0.1-0.1v-1.2
			c0-1.7-0.6-3-1.9-3.9c-0.8-0.6-1.5-0.8-2.4-0.8c-0.2,0-0.4,0-0.5,0.1c-0.1,0.1-0.2,0.2-0.2,0.4v11.7h1.1c1,0,1.9-0.2,2.9-0.5
			c0.9-0.3,1.8-0.9,2.7-1.8c0.8-0.8,1.5-1.8,1.9-2.8c0.7-1.6,1.1-2.9,1.1-3.8v-1.1c0.2-0.1,0.3-0.2,0.5-0.2s0.3,0,0.3,0.1
			c0.1,0,0.1,0.1,0.1,0.1v10.3H197c-0.2,0-0.3,0-0.4-0.1c-0.1,0-0.1-0.1-0.1-0.1c0-0.1,0-0.1,0.1-0.2c0.1,0,0.2-0.1,0.4-0.1h2.3
			V233.4z"/>
	</g>
</g>
<path d="M875.2,27.1c-3.1-14.5-23.9-25.7-49-25.7s-45.9,11.2-49,25.7c14.6-1.4,31.3-2.2,49-2.2S860.6,25.7,875.2,27.1z"/>
<path d="M929.5,44.1c-3.1-9.2-48.1-16.5-103.1-16.5c-54.8,0-99.7,7.2-103.1,16.4v0.1c-0.1,0.3-0.2,0.7-0.2,1c0,2.9,4,5.6,11.2,7.9
	c5.2,1.7,12,3.3,20.1,4.6c12.8-4.5,40.2-7.6,72-7.6s59.2,3.1,72,7.6c8.3-1.4,15.2-3,20.4-4.7c7-2.4,10.9-5,10.9-7.8
	C929.6,44.7,929.6,44.4,929.5,44.1z"/>
<path d="M906,70.3c0-0.2,0-0.3-0.1-0.5c-0.4-1.8-3.1-3.4-7.5-4.9c-12.8-4.3-40.2-7.3-72-7.3s-59.3,3-72,7.3
	c-4.6,1.6-7.3,3.3-7.6,5.1c0,0.1,0,0.2,0,0.3c0,4.2,13.1,8,33.2,10.3c1.8,0.2,3.6,0.4,5.4,0.6l-26.9,140.2v0.1
	c0,5.1,29.6,9.3,66.9,9.6c0.7,0,1.5,0,2.2,0s1.5,0,2.2,0c37.3-0.3,66.9-4.5,66.9-9.6v-0.1l-27-140.5c1-0.1,1.9-0.2,2.9-0.3
	C892.8,78.3,906,74.5,906,70.3z"/>
</svg>
