<?xml version="1.0" encoding="utf-8"?>
<!-- Generator: Adobe Illustrator 24.1.2, SVG Export Plug-In . SVG Version: 6.00 Build 0)  -->
<svg version="1.1" xmlns="http://www.w3.org/2000/svg" xmlns:xlink="http://www.w3.org/1999/xlink" x="0px" y="0px"
	 viewBox="0 0 932.4 259.2" style="enable-background:new 0 0 932.4 259.2;" xml:space="preserve">
<style type="text/css">
	.st0{font-family:'Onyx';}
	.st1{font-size:236.1278px;}
	.st2{font-size:34.2824px;}
</style>
<g id="Layer_1">
	<g>
		<path d="M826.1,63.2c-24,0-43.5,3.1-43.5,6.9c0,3.8,19.5,6.9,43.5,6.9c24,0,43.5-3.1,43.5-6.9C869.5,66.3,850.1,63.2,826.1,63.2z"
			/>
		<path d="M875.2,27.1c-3.1-14.5-23.9-25.7-49-25.7c-25.1,0-45.9,11.2-49,25.7c14.6-1.4,31.3-2.2,49-2.2
			C843.9,24.9,860.6,25.7,875.2,27.1z"/>
		<path d="M929.5,44.1C929.5,44.1,929.5,44.1,929.5,44.1c-3.1-9.2-48.1-16.5-103.1-16.5c-54.8,0-99.7,7.2-103.1,16.4
			c0,0,0,0.1,0,0.1c-0.1,0.3-0.2,0.7-0.2,1c0,2.9,4,5.6,11.2,7.9c5.2,1.7,12,3.3,20.1,4.6c12.8-4.5,40.2-7.6,72-7.6
			c31.8,0,59.2,3.1,72,7.6c8.3-1.4,15.2-3,20.4-4.7c7-2.4,10.9-5,10.9-7.8C929.6,44.7,929.6,44.4,929.5,44.1z"/>
		<path d="M898.2,61.8c-12.8-4.3-40.2-7.3-72-7.3c-31.8,0-59.3,3-72,7.3c-4.6,1.6-7.3,3.3-7.6,5.1c0,0.1,0,0.2,0,0.3
			c0,4.2,13.1,8,33.2,10.3c1.8,0.2,3.6,0.4,5.4,0.6l-26.9,140.2h0c0,0,0,0.1,0,0.1c0,5.1,29.6,9.3,66.9,9.6v0c0.7,0,1.5,0,2.2,0
			c0.7,0,1.5,0,2.2,0v0c37.3-0.3,66.9-4.5,66.9-9.6c0,0,0-0.1,0-0.1h0l-27-140.5c1-0.1,1.9-0.2,2.9-0.3c20.2-2.3,33.4-6.1,33.4-10.3
			c0-0.2,0-0.3-0.1-0.5C905.3,64.9,902.6,63.3,898.2,61.8z M826.1,77.1c-24,0-43.5-3.1-43.5-6.9c0-3.8,19.5-6.9,43.5-6.9
			c24,0,43.5,3.1,43.5,6.9C869.5,74,850.1,77.1,826.1,77.1z"/>
	</g>
</g>
<g id="Layer_2">
	<text transform="matrix(1.2564 0 0 1 -3.3255 228.0869)" class="st0 st1">UFONIGHT</text>
	<text transform="matrix(2.1201 0 0 1 4.1934 258.1698)" class="st0 st2">WE BELIEVE</text>
</g>
</svg>
