<svg id="a366af7f-f57c-4054-aa83-82885183bdaa" data-name="Layer 1" xmlns="http://www.w3.org/2000/svg" viewBox="0 0 929.69 256.77">
  <g>
    <path d="M85.44,244.63a1,1,0,0,0,.63-1V234.9a1.16,1.16,0,0,0-.65-1.16,6.56,6.56,0,0,0-2.5-.31H81.63v11.5h1.9A4.62,4.62,0,0,0,85.44,244.63Z" transform="translate(-0.01 -1.4)" style="fill: none"/>
    <path d="M85.55,245.63a3.72,3.72,0,0,0-1.63-.27H81.63v12.37h1.15a5.85,5.85,0,0,0,2.39-.4q.9-.4.9-1.08v-9.73A.94.94,0,0,0,85.55,245.63Z" transform="translate(-0.01 -1.4)" style="fill: none"/>
    <path d="M230.91,56.41A7.82,7.82,0,0,0,225.12,59c-2.23,2.3-3.33,5.65-3.33,10V210.91q0,9,3.47,13a8.27,8.27,0,0,0,6.38,2.88,9,9,0,0,0,6.37-2.6q2.75-2.58,2.75-7.43V69q0-6.23-3.62-9.92A8.13,8.13,0,0,0,230.91,56.41Z" transform="translate(-0.01 -1.4)" style="fill: none"/>
    <path d="M79.53,202.59V72.33q0-8.41,2.76-12.11a6.06,6.06,0,0,1,4.49-2.66A5.53,5.53,0,0,0,89,56.9a1.23,1.23,0,0,0,.65-1,3.59,3.59,0,0,0-2.16-1.22H64.75l-1.15.23-.29.81a1.72,1.72,0,0,0,.8,1.32,8.37,8.37,0,0,0,3.4,1.1c3.38.62,5.67,1.71,6.88,3.29s1.81,5.24,1.81,11V199.38q0,14.07-6.79,20.58t-17.16,6.51q-5.69,0-9-2.65a9,9,0,0,1-3.36-7.5V57.56H48a1.66,1.66,0,0,0,1.16-.38A1.49,1.49,0,0,0,49.55,56a1.22,1.22,0,0,0-.44-.94A1.65,1.65,0,0,0,48,54.68H1.6Q0,55.46,0,56.12T1.6,57.56h8.55v141.8q0,16.26,6.37,22.15,9.12,8.31,29.55,8.31,16.23,0,24.84-6.93T79.53,202.59Z" transform="translate(-0.01 -1.4)"/>
    <path d="M177.38,120.05a1.69,1.69,0,0,0,1.11-.34,1.13,1.13,0,0,0,.42-.92V54.68h-80q-1.59.69-1.59,1.5c0,.38.53.85,1.59,1.38h9V225.21h-9a2.84,2.84,0,0,0-1.59.38,1.2,1.2,0,0,0-.58,1.06,1.23,1.23,0,0,0,.58,1,2.56,2.56,0,0,0,1.6.45h47.94a1.68,1.68,0,0,0,1.16-.39,1.34,1.34,0,0,0,.44-1,1.33,1.33,0,0,0-.45-1.06,1.68,1.68,0,0,0-1.17-.38h-9.25V141.73a15.38,15.38,0,0,1,11.83,5.88q7.14,8.76,7.15,25.48v10.26a1.3,1.3,0,0,0,.61,1l1,.35a2,2,0,0,0,1.22-.35,1.23,1.23,0,0,0,.45-1V96.88a1.28,1.28,0,0,0-.45-1,1.78,1.78,0,0,0-1.22-.4,2,2,0,0,0-1.21.34,1.23,1.23,0,0,0-.45,1v6.34q0,19.61-7.3,28.94-4.81,6.1-11.68,6.57v-81h4.95q7.26,0,10.76,1.32a14.22,14.22,0,0,1,6,4.32q4.8,5.87,10.18,22.15A117.26,117.26,0,0,1,175.58,116c.09,2.07.27,3.26.55,3.56A1.59,1.59,0,0,0,177.38,120.05Z" transform="translate(-0.01 -1.4)"/>
    <path d="M263.72,76.3A49,49,0,0,0,255.1,63a32.58,32.58,0,0,0-10.86-7.61,33.64,33.64,0,0,0-13.33-2.59q-14.92,0-25.06,11.64-14.62,16.83-14.63,51.65v49.81q0,22.38,8,40.7,4.92,11.42,13.61,17.3a33.19,33.19,0,0,0,19,5.88q15.21,0,25.35-11.76,14.63-17,14.63-53.73V121.78a167,167,0,0,0-2.61-28.36A69.23,69.23,0,0,0,263.72,76.3Zm-23,140.49q0,4.85-2.75,7.43a9,9,0,0,1-6.37,2.6,8.27,8.27,0,0,1-6.38-2.88q-3.48-4-3.47-13V69c0-4.38,1.1-7.73,3.33-10a7.82,7.82,0,0,1,5.79-2.54,8.13,8.13,0,0,1,6.23,2.65q3.62,3.69,3.62,9.92Z" transform="translate(-0.01 -1.4)"/>
    <path d="M364.62,54.68H339a2.93,2.93,0,0,0-1.81.35,1.68,1.68,0,0,0-.37,1.26c0,.7.24,1.12.73,1.27l6.23.46a9.39,9.39,0,0,1,5.36,3.23q1.72,2.31,1.73,7.61V181.51L321.59,54.68H284.07a2,2,0,0,0-1.23.4,1.21,1.21,0,0,0-.5,1,1.31,1.31,0,0,0,.5,1.1,1.91,1.91,0,0,0,1.23.4h8.12V212.87c-.29,4.23-1,7.07-2.1,8.53s-3.17,2.65-6.16,3.57a12.59,12.59,0,0,0-2.54,1,1.07,1.07,0,0,0-.36.87,1.22,1.22,0,0,0,.36.92,1.32,1.32,0,0,0,.95.35H308a3.52,3.52,0,0,0,1.81-.29,1.53,1.53,0,0,0,.36-1.21,1.37,1.37,0,0,0-.73-1.38l-6.51-.47a8.49,8.49,0,0,1-5.22-3.28q-1.59-2.37-1.59-8.25V70.13l36.11,158h22.41V69.89q.44-6.11,2.17-8.35T363,57.91a12,12,0,0,0,2.54-1,1,1,0,0,0,.36-.87,1.43,1.43,0,0,0-.36-1A1.24,1.24,0,0,0,364.62,54.68Z" transform="translate(-0.01 -1.4)"/>
    <path d="M420.89,55.08a2,2,0,0,0-1.23-.4H372.58a1.68,1.68,0,0,0-1.16.4,1.43,1.43,0,0,0-.43,1.1,1.29,1.29,0,0,0,.43,1,1.64,1.64,0,0,0,1.16.4h8.69V225.21h-9.85q-1.59.76-1.59,1.44t1.59,1.44h48.24c1-.45,1.45-.93,1.45-1.44s-.48-.93-1.45-1.44H411V57.56h8.69a1.91,1.91,0,0,0,1.23-.4,1.32,1.32,0,0,0,.51-1.1A1.22,1.22,0,0,0,420.89,55.08Z" transform="translate(-0.01 -1.4)"/>
    <path d="M515.7,147.84H473.55a1.85,1.85,0,0,0-1.23.42,1.4,1.4,0,0,0-.51,1.14,1.28,1.28,0,0,0,.51,1,1.85,1.85,0,0,0,1.23.42h7.53v64.24q0,5.86-3.33,9.32a9.1,9.1,0,0,1-6.66,2.42,10,10,0,0,1-6.52-2.13,7.14,7.14,0,0,1-2.61-5.83V69.78q0-7.71,2.9-10.72a9.47,9.47,0,0,1,7.1-3q7.67,0,13.32,7.27,9.86,13,14.78,54.88.57,5.76.87,6.11c.19.31.62.46,1.3.46a2.14,2.14,0,0,0,1.23-.34,1.08,1.08,0,0,0,.51-.93V54.68a1,1,0,0,0-.29-.81,1.13,1.13,0,0,0-.72-.23A3.14,3.14,0,0,0,500.64,55l-9.56,10.72q-8.26-12.91-20.86-12.91-17.39,0-28.25,19t-10.86,49.75v42.89q0,30.09,10.14,47.74t29.84,17.64a23.82,23.82,0,0,0,12.53-3.28q5.43-3.28,13.83-14.68l8.26,16.23a4.12,4.12,0,0,0,1.08,1.38,1.91,1.91,0,0,0,1.09.35,1.07,1.07,0,0,0,.87-.35,2,2,0,0,0,.43-1.38V150.72h6.52a1.62,1.62,0,0,0,1.16-.4,1.3,1.3,0,0,0,.44-1,1.44,1.44,0,0,0-.44-1.1A1.67,1.67,0,0,0,515.7,147.84Z" transform="translate(-0.01 -1.4)"/>
    <path d="M621.74,225.59a2.28,2.28,0,0,0-1.3-.38h-8.69V57.56h8.69q1.59-.8,1.59-1.5t-1.59-1.38H575.68c-1.07.46-1.6.92-1.6,1.38s.53,1,1.6,1.5h6.08v78.87H563.22V57.56h4.63c1.06-.53,1.6-1,1.6-1.5s-.53-.84-1.59-1.38H524q-1.59.81-1.59,1.38t1.59,1.5h9.56V225.21H524q-1.59.76-1.59,1.44t1.59,1.44h44.91a2,2,0,0,0,1.23-.39,1.35,1.35,0,0,0,0-2.11,2,2,0,0,0-1.23-.38h-5.65v-86h18.54v86H577a2,2,0,0,0-1.26.38,1.34,1.34,0,0,0,0,2.11,2,2,0,0,0,1.23.39h43.45a2.32,2.32,0,0,0,1.31-.39,1.25,1.25,0,0,0,0-2.11Z" transform="translate(-0.01 -1.4)"/>
    <path d="M629.56,127.78a2,2,0,0,0,.73,1.5,1.69,1.69,0,0,0,1.3.46,1.87,1.87,0,0,0,1.3-.52,1.81,1.81,0,0,0,.58-1.44v-2.65q0-4.95,3.77-23.42A181.28,181.28,0,0,1,646.37,70q3.33-8.3,6.8-10.71a9.45,9.45,0,0,1,5.51-1.61h3V225.21h-12.6a1.66,1.66,0,0,0-1.16.38,1.51,1.51,0,0,0,0,2.11,1.65,1.65,0,0,0,1.15.39h53.61q1.59-.78,1.59-1.44t-1.59-1.44h-11.3V57.68h4.63a7.47,7.47,0,0,1,4.28,1.61q2.24,1.6,5.72,9.42a172.08,172.08,0,0,1,9.49,30.06q4.13,17.87,4.13,24.42v4.48a1.69,1.69,0,0,0,.57,1.32,1.9,1.9,0,0,0,1.31.52A2.08,2.08,0,0,0,723,129a1.71,1.71,0,0,0,.58-1.32v-73h-94Z" transform="translate(-0.01 -1.4)"/>
    <path d="M38.28,233H32.41c-.26.09-.39.16-.39.23s.07.16.21.19l1.06.07a1.9,1.9,0,0,1,1,.46,1.23,1.23,0,0,1,.36.93,2.57,2.57,0,0,1,0,.45l-3.49,15-3.39-16.93h2q.39-.1.39-.21t-.39-.21H18.68a.67.67,0,0,0-.3.06c-.09,0-.13.09-.13.15s0,.12.13.16a.85.85,0,0,0,.3,0h1.77l.36,1.54-3.47,15.39L14,233.41h1.92a.74.74,0,0,0,.28,0,.16.16,0,0,0,0-.31.58.58,0,0,0-.28-.06H4.9q-.39.12-.39.21t.39.21H6.61l5.29,23.12a4.88,4.88,0,0,0,.46,1.49,1,1,0,0,0,.61.15h2.55a1.59,1.59,0,0,0,.89-.17,5.33,5.33,0,0,0,.5-1.67l4.25-19.43,4.51,19.21L26.1,258a1.42,1.42,0,0,0,.81.2h2.54a1,1,0,0,0,.63-.15,3.83,3.83,0,0,0,.63-1.69l4.73-20.84a2.43,2.43,0,0,1,1.2-1.57,3.44,3.44,0,0,1,1.64-.51.66.66,0,0,0,.3-.07.16.16,0,0,0,.09-.14Q38.67,233.11,38.28,233Z" transform="translate(-0.01 -1.4)"/>
    <path d="M39.61,233.21c0,.06.12.12.36.2h2.3v24.34H40a1.07,1.07,0,0,0-.39.06c-.09,0-.14.09-.14.15s.05.1.14.15a1.07,1.07,0,0,0,.39.06H60.16V247.82s0-.1-.12-.13a1.06,1.06,0,0,0-.34-.05.79.79,0,0,0-.46.18v1.11a10,10,0,0,1-1.1,3.77,9.5,9.5,0,0,1-1.92,2.75,7.13,7.13,0,0,1-2.66,1.77,8.48,8.48,0,0,1-2.87.51H49.55V246.07a.39.39,0,0,1,.21-.37,1,1,0,0,1,.5-.1,4,4,0,0,1,2.38.84,4.69,4.69,0,0,1,1.91,3.93v1.2c0,.06,0,.11.13.15a.67.67,0,0,0,.3.06.55.55,0,0,0,.28-.06.18.18,0,0,0,.11-.15V239.14a.16.16,0,0,0-.11-.14.55.55,0,0,0-.28-.06.67.67,0,0,0-.3.06c-.09,0-.13.08-.13.14v1.3a4.28,4.28,0,0,1-1.7,3.75,6.17,6.17,0,0,1-3.3,1V233.43h2.21a7.42,7.42,0,0,1,2.63.33,7.93,7.93,0,0,1,3.1,3A10.78,10.78,0,0,1,59.34,242q0,.42.12.48a.56.56,0,0,0,.29,0,.65.65,0,0,0,.41-.16V233H40C39.73,233.06,39.61,233.13,39.61,233.21Z" transform="translate(-0.01 -1.4)"/>
    <path d="M89.27,246.15a25.19,25.19,0,0,0-4.29-1,23,23,0,0,0,4.18-1A7.77,7.77,0,0,0,92.4,242a4.54,4.54,0,0,0,1-3q0-2.85-3.07-4.42a17.29,17.29,0,0,0-7.9-1.58H72q-.39.12-.39.21t.39.21h2.35v24.34H72q-.39.12-.39.21c0,.07.13.13.39.21H82.13a20.61,20.61,0,0,0,6.21-.83,8.48,8.48,0,0,0,3.73-2.07,5.75,5.75,0,0,0,1.66-4.06,4.23,4.23,0,0,0-1.13-3A9,9,0,0,0,89.27,246.15Zm-7.64-12.72h1.29a6.56,6.56,0,0,1,2.5.31,1.16,1.16,0,0,1,.65,1.16v8.73a1,1,0,0,1-.63,1,4.62,4.62,0,0,1-1.91.3h-1.9Zm4.44,22.82q0,.67-.9,1.08a5.85,5.85,0,0,1-2.39.4H81.63V245.36h2.29a3.72,3.72,0,0,1,1.63.27.94.94,0,0,1,.52.89Z" transform="translate(-0.01 -1.4)"/>
    <path d="M95.58,233.21c0,.06.12.12.36.2h2.3v24.34H96a1,1,0,0,0-.39.06c-.1,0-.14.09-.14.15s0,.1.14.15a1,1,0,0,0,.39.06h20.16V247.82s0-.1-.13-.13a1,1,0,0,0-.33-.05.82.82,0,0,0-.47.18v1.11a9.86,9.86,0,0,1-1.1,3.77,9.47,9.47,0,0,1-1.91,2.75,7.21,7.21,0,0,1-2.66,1.77,8.49,8.49,0,0,1-2.88.51h-1.13V246.07a.39.39,0,0,1,.21-.37,1,1,0,0,1,.5-.1,3.92,3.92,0,0,1,2.37.84,4.67,4.67,0,0,1,1.92,3.93v1.2q0,.09.12.15a.75.75,0,0,0,.31.06.58.58,0,0,0,.28-.06.18.18,0,0,0,.11-.15V239.14a.16.16,0,0,0-.11-.14.58.58,0,0,0-.28-.06.75.75,0,0,0-.31.06c-.08,0-.12.08-.12.14v1.3a4.31,4.31,0,0,1-1.7,3.75,6.23,6.23,0,0,1-3.3,1V233.43h2.2a7.44,7.44,0,0,1,2.64.33,7.93,7.93,0,0,1,3.1,3,10.89,10.89,0,0,1,1.85,5.16q0,.42.12.48a.54.54,0,0,0,.29,0,.67.67,0,0,0,.41-.16V233H95.93C95.7,233.06,95.58,233.13,95.58,233.21Z" transform="translate(-0.01 -1.4)"/>
    <path d="M138.07,247.94l-.28-.05-.27.05a.42.42,0,0,0-.13.3,17.2,17.2,0,0,1-.81,3,12.72,12.72,0,0,1-2.44,4.31,5.72,5.72,0,0,1-2.35,1.77,8.52,8.52,0,0,1-2.81.42h-1.5V233.41h2.35a.73.73,0,0,0,.3-.06q.12-.06.12-.15t-.12-.15a.73.73,0,0,0-.3-.06H118c-.26.08-.39.15-.39.22s.13.12.39.2h2.2v24.34H118a.75.75,0,0,0-.31.06q-.12.06-.12.15a.16.16,0,0,0,.12.15.67.67,0,0,0,.3.06h19.95l.28-10.08C138.2,248,138.16,248,138.07,247.94Z" transform="translate(-0.01 -1.4)"/>
    <path d="M152,233.05a.67.67,0,0,0-.3-.06H140.19a.62.62,0,0,0-.29.06.17.17,0,0,0-.1.16c0,.06,0,.1.1.14a.62.62,0,0,0,.29.06h2.13v24.34H139.9q-.39.12-.39.21c0,.07.13.13.39.21h11.82q.36-.09.36-.21t-.36-.21h-2.13V233.41h2.13a.67.67,0,0,0,.3-.06c.09,0,.13-.09.13-.15S152.11,233.09,152,233.05Z" transform="translate(-0.01 -1.4)"/>
    <path d="M153.75,233.21c0,.06.12.12.36.2h2.3v24.34h-2.27a1,1,0,0,0-.39.06q-.15.06-.15.15t.15.15a1,1,0,0,0,.39.06h20.15V247.82s0-.1-.12-.13a1,1,0,0,0-.34-.05.82.82,0,0,0-.46.18v1.11a10,10,0,0,1-1.1,3.77,9.5,9.5,0,0,1-1.92,2.75,7,7,0,0,1-2.66,1.77,8.39,8.39,0,0,1-2.87.51h-1.14V246.07a.39.39,0,0,1,.22-.37.94.94,0,0,1,.49-.1,4,4,0,0,1,2.38.84,4.67,4.67,0,0,1,1.92,3.93v1.2q0,.09.12.15a.67.67,0,0,0,.3.06.6.6,0,0,0,.29-.06.17.17,0,0,0,.1-.15V239.14a.15.15,0,0,0-.1-.14.6.6,0,0,0-.29-.06.67.67,0,0,0-.3.06c-.08,0-.12.08-.12.14v1.3a4.29,4.29,0,0,1-1.71,3.75,6.17,6.17,0,0,1-3.3,1V233.43h2.21a7.48,7.48,0,0,1,2.64.33,8,8,0,0,1,3.1,3,11,11,0,0,1,1.85,5.16q0,.42.12.48a.52.52,0,0,0,.29,0,.62.62,0,0,0,.4-.16V233H154.1C153.86,233.06,153.75,233.13,153.75,233.21Z" transform="translate(-0.01 -1.4)"/>
    <path d="M195.74,233h-5.37c-.26.08-.39.15-.39.22s.07.16.21.2l1.14.05a1.73,1.73,0,0,1,.92.35,1.08,1.08,0,0,1,.32.84,1.53,1.53,0,0,1-.07.47L188.29,252l-3.1-18.55h2.16a.82.82,0,0,0,.32,0,.18.18,0,0,0,.11-.16q0-.09-.12-.15a.75.75,0,0,0-.31-.06H176a.67.67,0,0,0-.3.06q-.12.06-.12.15a.18.18,0,0,0,.12.16.85.85,0,0,0,.3,0h1.81l4.84,22.7a7.6,7.6,0,0,0,.53,1.93.57.57,0,0,0,.42.13H187a.86.86,0,0,0,.53-.12,5.25,5.25,0,0,0,.46-1.42l5.39-21.17a2.77,2.77,0,0,1,1-1.73,2.69,2.69,0,0,1,1.31-.35.67.67,0,0,0,.31-.07.16.16,0,0,0,.08-.13c0-.06,0-.1-.1-.14A.76.76,0,0,0,195.74,233Z" transform="translate(-0.01 -1.4)"/>
    <path d="M196.58,233.21c0,.06.12.12.36.2h2.3v24.34H197a1.07,1.07,0,0,0-.39.06c-.09,0-.14.09-.14.15s.05.1.14.15a1.07,1.07,0,0,0,.39.06h20.16V247.82s0-.1-.12-.13a1.06,1.06,0,0,0-.34-.05.79.79,0,0,0-.46.18v1.11a10,10,0,0,1-1.1,3.77,9.5,9.5,0,0,1-1.92,2.75,7.21,7.21,0,0,1-2.66,1.77,8.49,8.49,0,0,1-2.88.51h-1.13V246.07a.39.39,0,0,1,.21-.37,1,1,0,0,1,.5-.1,4,4,0,0,1,2.38.84,4.69,4.69,0,0,1,1.91,3.93v1.2c0,.06,0,.11.13.15a.67.67,0,0,0,.3.06.55.55,0,0,0,.28-.06.18.18,0,0,0,.11-.15V239.14a.16.16,0,0,0-.11-.14.55.55,0,0,0-.28-.06.67.67,0,0,0-.3.06c-.09,0-.13.08-.13.14v1.3a4.31,4.31,0,0,1-1.7,3.75,6.17,6.17,0,0,1-3.3,1V233.43h2.21a7.42,7.42,0,0,1,2.63.33,7.93,7.93,0,0,1,3.1,3,10.78,10.78,0,0,1,1.85,5.16q0,.42.12.48a.54.54,0,0,0,.29,0,.65.65,0,0,0,.41-.16V233H196.94C196.7,233.06,196.58,233.13,196.58,233.21Z" transform="translate(-0.01 -1.4)"/>
    <path d="M875.2,27.1c-3.1-14.5-23.9-25.7-49-25.7s-45.9,11.2-49,25.7c14.6-1.4,31.3-2.2,49-2.2S860.6,25.7,875.2,27.1Z" transform="translate(-0.01 -1.4)"/>
    <path d="M929.5,44.1c-3.1-9.2-48.1-16.5-103.1-16.5-54.8,0-99.7,7.2-103.1,16.4v.1a3.55,3.55,0,0,0-.2,1c0,2.9,4,5.6,11.2,7.9a135.53,135.53,0,0,0,20.1,4.6c12.8-4.5,40.2-7.6,72-7.6s59.2,3.1,72,7.6a146.34,146.34,0,0,0,20.4-4.7c7-2.4,10.9-5,10.9-7.8C929.6,44.7,929.6,44.4,929.5,44.1Z" transform="translate(-0.01 -1.4)"/>
    <path d="M898.4,64.9c-12.8-4.3-40.2-7.3-72-7.3s-59.3,3-72,7.3c-4.6,1.6-7.3,3.3-7.6,5.1v.3c0,4.2,13.1,8,33.2,10.3l5.4.6L758.5,221.4v.1c0,5.1,29.6,9.3,66.9,9.6h4.4c37.3-.3,66.9-4.5,66.9-9.6v-.1l-27-140.5,2.9-.3c20.2-2.3,33.4-6.1,33.4-10.3a.9.9,0,0,0-.1-.5C905.5,68,902.8,66.4,898.4,64.9ZM827.45,80.65c-25.7,0-46.54-2.75-46.54-6.13s20.84-6.13,46.54-6.13S874,71.14,874,74.52,853.15,80.65,827.45,80.65Z" transform="translate(-0.01 -1.4)"/>
    <ellipse cx="827.44" cy="73.12" rx="46.54" ry="6.13"/>
  </g>
</svg>
