<svg xmlns="http://www.w3.org/2000/svg" viewBox="0 0 929.69 256.77">
  <defs>
    <style>
      .cls-1 {
        fill: none;
      }
    </style>
  </defs>
  <g id="Layer_2" data-name="Layer 2">
    <g id="Layer_1-2" data-name="Layer 1">
      <g>
        <path class="cls-1" d="M85.44,243.23a1,1,0,0,0,.62-1V233.5a1.15,1.15,0,0,0-.64-1.16,6.62,6.62,0,0,0-2.51-.31H81.63v11.5h1.89A4.68,4.68,0,0,0,85.44,243.23Z"/>
        <path class="cls-1" d="M85.54,244.23a3.67,3.67,0,0,0-1.62-.27H81.63v12.37h1.14a5.94,5.94,0,0,0,2.4-.4c.59-.27.89-.63.89-1.08v-9.73A.93.93,0,0,0,85.54,244.23Z"/>
        <path class="cls-1" d="M230.91,55a7.82,7.82,0,0,0-5.8,2.54q-3.33,3.45-3.33,10V209.51q0,9,3.48,13a8.25,8.25,0,0,0,6.37,2.88,9,9,0,0,0,6.37-2.6q2.76-2.58,2.76-7.43V67.58q0-6.22-3.63-9.92A8.11,8.11,0,0,0,230.91,55Z"/>
        <path d="M79.53,201.19V70.93q0-8.42,2.75-12.11a6.07,6.07,0,0,1,4.49-2.66A5.64,5.64,0,0,0,89,55.5a1.25,1.25,0,0,0,.65-1,3.64,3.64,0,0,0-2.16-1.22H64.75l-1.16.23-.29.81a1.74,1.74,0,0,0,.8,1.32,8.43,8.43,0,0,0,3.4,1.1c3.38.62,5.68,1.71,6.89,3.29s1.81,5.24,1.81,11V198q0,14.07-6.79,20.58t-17.16,6.51q-5.7,0-9-2.65a9,9,0,0,1-3.36-7.5V56.16H48a1.67,1.67,0,0,0,1.16-.38,1.49,1.49,0,0,0,.43-1.17,1.21,1.21,0,0,0-.43-.94A1.68,1.68,0,0,0,48,53.28H1.59Q0,54.06,0,54.72t1.59,1.44h8.55V198q0,16.26,6.37,22.15,9.14,8.31,29.56,8.31,16.22,0,24.84-6.93T79.53,201.19Z"/>
        <path d="M177.37,118.65a1.67,1.67,0,0,0,1.11-.34,1.13,1.13,0,0,0,.42-.92V53.28h-80q-1.59.69-1.59,1.5c0,.38.53.85,1.59,1.38h9V223.81h-9a2.79,2.79,0,0,0-1.59.38,1.2,1.2,0,0,0-.58,1.06,1.23,1.23,0,0,0,.58,1,2.54,2.54,0,0,0,1.6.45h47.93a1.66,1.66,0,0,0,1.16-.39,1.48,1.48,0,0,0,0-2.11,1.71,1.71,0,0,0-1.18-.38h-9.24V140.33a15.36,15.36,0,0,1,11.82,5.88q7.16,8.76,7.15,25.48V182a1.3,1.3,0,0,0,.61,1l1.06.35a2,2,0,0,0,1.21-.35,1.23,1.23,0,0,0,.45-1V95.48a1.28,1.28,0,0,0-.45-1,1.75,1.75,0,0,0-1.21-.4,1.93,1.93,0,0,0-1.21.34,1.21,1.21,0,0,0-.46,1v6.34q0,19.61-7.3,28.94-4.81,6.11-11.67,6.57V56.28h4.94q7.27,0,10.76,1.32a14.16,14.16,0,0,1,6,4.32q4.8,5.86,10.18,22.15a116.85,116.85,0,0,1,6.11,30.56c.09,2.07.28,3.26.55,3.56A1.6,1.6,0,0,0,177.37,118.65Z"/>
        <path d="M263.72,74.9a49.21,49.21,0,0,0-8.62-13.26A32.62,32.62,0,0,0,244.23,54a33.59,33.59,0,0,0-13.32-2.59q-14.92,0-25.07,11.64-14.62,16.83-14.63,51.65v49.81q0,22.38,8,40.7,4.92,11.41,13.62,17.3a33.16,33.16,0,0,0,19,5.88q15.21,0,25.35-11.76,14.64-16.95,14.64-53.73V120.38A167,167,0,0,0,269.15,92,70.08,70.08,0,0,0,263.72,74.9Zm-23,140.49q0,4.85-2.76,7.43a9,9,0,0,1-6.37,2.6,8.25,8.25,0,0,1-6.37-2.88q-3.48-4-3.48-13V67.58q0-6.57,3.33-10a7.82,7.82,0,0,1,5.8-2.54,8.11,8.11,0,0,1,6.22,2.65q3.63,3.69,3.63,9.92Z"/>
        <path d="M364.61,53.28H339a3,3,0,0,0-1.81.35,1.72,1.72,0,0,0-.36,1.26c0,.7.24,1.12.72,1.27l6.23.46a9.39,9.39,0,0,1,5.36,3.23q1.74,2.31,1.74,7.61V180.11L321.59,53.28H284.07a1.93,1.93,0,0,0-1.23.4,1.22,1.22,0,0,0-.51,1,1.32,1.32,0,0,0,.51,1.1,1.88,1.88,0,0,0,1.23.4h8.11V211.47q-.44,6.34-2.1,8.53t-6.16,3.57a12.66,12.66,0,0,0-2.53,1,1.07,1.07,0,0,0-.36.87,1.22,1.22,0,0,0,.36.92,1.3,1.3,0,0,0,.94.35H308a3.49,3.49,0,0,0,1.81-.29,1.53,1.53,0,0,0,.36-1.21,1.38,1.38,0,0,0-.72-1.38l-6.52-.47a8.46,8.46,0,0,1-5.21-3.28q-1.6-2.37-1.6-8.25V68.73l36.12,158h22.4V68.49q.43-6.1,2.18-8.35c1.16-1.5,3.23-2.71,6.23-3.63a11.77,11.77,0,0,0,2.53-1,1,1,0,0,0,.36-.87,1.43,1.43,0,0,0-.36-1A1.24,1.24,0,0,0,364.61,53.28Z"/>
        <path d="M420.89,53.68a2,2,0,0,0-1.23-.4H372.58a1.67,1.67,0,0,0-1.16.4,1.44,1.44,0,0,0-.44,1.1,1.3,1.3,0,0,0,.44,1,1.62,1.62,0,0,0,1.16.4h8.69V223.81h-9.85c-1.07.51-1.59,1-1.59,1.44s.52.92,1.59,1.44h48.24q1.44-.67,1.44-1.44t-1.44-1.44H411V56.16h8.7a1.91,1.91,0,0,0,1.23-.4,1.32,1.32,0,0,0,.51-1.1A1.22,1.22,0,0,0,420.89,53.68Z"/>
        <path d="M515.7,146.44H473.54a1.87,1.87,0,0,0-1.23.42,1.4,1.4,0,0,0-.51,1.14,1.28,1.28,0,0,0,.51,1,1.87,1.87,0,0,0,1.23.42h7.54v64.24q0,5.87-3.34,9.32a9.1,9.1,0,0,1-6.66,2.42,10,10,0,0,1-6.52-2.13,7.13,7.13,0,0,1-2.6-5.83V68.38q0-7.71,2.89-10.72a9.49,9.49,0,0,1,7.1-3q7.68,0,13.33,7.27,9.84,13,14.77,54.88.58,5.76.87,6.11c.19.31.63.46,1.31.46a2.14,2.14,0,0,0,1.23-.34,1.1,1.1,0,0,0,.5-.93V53.28a1,1,0,0,0-.29-.81,1.13,1.13,0,0,0-.72-.23,3.16,3.16,0,0,0-2.32,1.39l-9.56,10.72q-8.25-12.91-20.86-12.91-17.38,0-28.25,19T431.1,120.15V163q0,30.09,10.14,47.74t29.84,17.64a23.82,23.82,0,0,0,12.53-3.28q5.43-3.28,13.84-14.68l8.25,16.23a4.12,4.12,0,0,0,1.09,1.38,1.91,1.91,0,0,0,1.09.35,1.06,1.06,0,0,0,.86-.35,2,2,0,0,0,.44-1.38V149.32h6.52a1.64,1.64,0,0,0,1.16-.4,1.29,1.29,0,0,0,.43-1,1.43,1.43,0,0,0-.43-1.1A1.68,1.68,0,0,0,515.7,146.44Z"/>
        <path d="M621.73,224.19a2.25,2.25,0,0,0-1.3-.38h-8.69V56.16h8.69q1.59-.79,1.59-1.5t-1.59-1.38H575.67q-1.59.69-1.59,1.38t1.59,1.5h6.08V135H563.21V56.16h4.64q1.59-.79,1.59-1.5t-1.59-1.38H524q-1.59.81-1.59,1.38c0,.47.53,1,1.6,1.5h9.56V223.81H524c-1.07.51-1.6,1-1.6,1.44s.53.92,1.59,1.44h44.92a1.94,1.94,0,0,0,1.22-.39,1.35,1.35,0,0,0,0-2.11,2,2,0,0,0-1.23-.38h-5.65v-86h18.54v86H577a2,2,0,0,0-1.26.38,1.27,1.27,0,0,0-.52,1.06,1.25,1.25,0,0,0,.51,1.05,2,2,0,0,0,1.24.39h43.44a2.29,2.29,0,0,0,1.31-.39,1.25,1.25,0,0,0,0-2.11Z"/>
        <path d="M629.56,126.38a2.06,2.06,0,0,0,.72,1.5,1.7,1.7,0,0,0,1.3.46,1.9,1.9,0,0,0,1.31-.52,1.84,1.84,0,0,0,.58-1.44v-2.65q0-5,3.76-23.42a182.15,182.15,0,0,1,9.13-31.71q3.33-8.29,6.81-10.71a9.41,9.41,0,0,1,5.5-1.61h3V223.81h-12.6a1.67,1.67,0,0,0-1.16.38,1.51,1.51,0,0,0,0,2.11,1.68,1.68,0,0,0,1.16.39h53.6q1.59-.78,1.59-1.44t-1.59-1.44h-11.3V56.28h4.64a7.45,7.45,0,0,1,4.27,1.61q2.25,1.61,5.72,9.42a171.23,171.23,0,0,1,9.49,30.06q4.13,17.86,4.13,24.42v4.48a1.67,1.67,0,0,0,.58,1.32,1.87,1.87,0,0,0,1.3.52,2.08,2.08,0,0,0,1.45-.52,1.69,1.69,0,0,0,.58-1.32v-73h-94Z"/>
        <path d="M38.27,231.59H32.4c-.26.09-.39.16-.39.23s.07.16.21.19l1.07.07a1.93,1.93,0,0,1,1,.46,1.26,1.26,0,0,1,.35.93,3.91,3.91,0,0,1,0,.45l-3.5,15L27.75,232h2q.39-.1.39-.21t-.39-.21H18.67a.67.67,0,0,0-.3.06q-.12.06-.12.15a.18.18,0,0,0,.12.16.85.85,0,0,0,.3,0h1.78l.35,1.54-3.46,15.39L14,232H15.9a.7.7,0,0,0,.28,0,.16.16,0,0,0,0-.31.55.55,0,0,0-.28-.06H4.9q-.39.12-.39.21t.39.21H6.6l5.3,23.12a4.57,4.57,0,0,0,.46,1.49.94.94,0,0,0,.6.15h2.56a1.61,1.61,0,0,0,.89-.17,5.5,5.5,0,0,0,.49-1.67l4.26-19.43,4.51,19.21.42,1.86a1.42,1.42,0,0,0,.81.2h2.54a1,1,0,0,0,.63-.15,4,4,0,0,0,.64-1.69l4.72-20.84a2.41,2.41,0,0,1,1.21-1.57,3.37,3.37,0,0,1,1.63-.51.66.66,0,0,0,.3-.07.16.16,0,0,0,.09-.14Q38.66,231.71,38.27,231.59Z"/>
        <path d="M39.61,231.81c0,.06.12.12.36.2h2.3v24.34H40a1,1,0,0,0-.39.06q-.15.06-.15.15t.15.15a1,1,0,0,0,.39.06H60.15V246.42s0-.1-.12-.13a1,1,0,0,0-.34,0,.82.82,0,0,0-.46.18v1.11a9.86,9.86,0,0,1-1.1,3.77,9.66,9.66,0,0,1-1.91,2.75,7.16,7.16,0,0,1-2.67,1.77,8.39,8.39,0,0,1-2.87.51H49.54V244.67a.39.39,0,0,1,.22-.37.94.94,0,0,1,.49-.1,4,4,0,0,1,2.38.84A4.67,4.67,0,0,1,54.55,249v1.2q0,.09.12.15a.67.67,0,0,0,.3.06.6.6,0,0,0,.29-.06.17.17,0,0,0,.1-.15V237.74a.15.15,0,0,0-.1-.14.6.6,0,0,0-.29-.06.67.67,0,0,0-.3.06c-.08,0-.12.08-.12.14V239a4.29,4.29,0,0,1-1.71,3.75,6.17,6.17,0,0,1-3.3,1V232h2.21a7.44,7.44,0,0,1,2.64.33,8,8,0,0,1,3.1,3,11,11,0,0,1,1.85,5.16q0,.42.12.48a.52.52,0,0,0,.29.05.62.62,0,0,0,.4-.16v-9.33H40C39.72,231.66,39.61,231.73,39.61,231.81Z"/>
        <path d="M89.26,244.75a24.71,24.71,0,0,0-4.29-1,22.83,22.83,0,0,0,4.18-1,7.81,7.81,0,0,0,3.25-2.12,4.58,4.58,0,0,0,1-3q0-2.85-3.07-4.42a17.25,17.25,0,0,0-7.89-1.58H72q-.39.12-.39.21T72,232h2.34v24.34H72q-.39.12-.39.21c0,.07.13.13.39.21H82.12a20.52,20.52,0,0,0,6.21-.83,8.48,8.48,0,0,0,3.73-2.07,5.76,5.76,0,0,0,1.67-4.06,4.19,4.19,0,0,0-1.14-3A8.81,8.81,0,0,0,89.26,244.75ZM81.63,232h1.28a6.62,6.62,0,0,1,2.51.31,1.15,1.15,0,0,1,.64,1.16v8.72a1,1,0,0,1-.62,1,4.68,4.68,0,0,1-1.92.3H81.63Zm4.43,22.82c0,.45-.3.81-.89,1.08a5.94,5.94,0,0,1-2.4.4H81.63V244h2.29a3.67,3.67,0,0,1,1.62.27.93.93,0,0,1,.52.89Z"/>
        <path d="M95.57,231.81c0,.06.12.12.36.2h2.3v24.34H96a1.07,1.07,0,0,0-.39.06c-.09,0-.14.09-.14.15s0,.1.14.15a1.07,1.07,0,0,0,.39.06h20.16V246.42s0-.1-.12-.13a1.06,1.06,0,0,0-.34,0,.79.79,0,0,0-.46.18v1.11a10,10,0,0,1-1.1,3.77,9.5,9.5,0,0,1-1.92,2.75,7.13,7.13,0,0,1-2.66,1.77,8.44,8.44,0,0,1-2.87.51h-1.14V244.67a.39.39,0,0,1,.21-.37,1,1,0,0,1,.5-.1,4,4,0,0,1,2.38.84,4.67,4.67,0,0,1,1.91,3.93v1.2c0,.06,0,.11.13.15a.67.67,0,0,0,.3.06.55.55,0,0,0,.28-.06.18.18,0,0,0,.11-.15V237.74a.16.16,0,0,0-.11-.14.55.55,0,0,0-.28-.06.67.67,0,0,0-.3.06c-.09,0-.13.08-.13.14V239a4.28,4.28,0,0,1-1.7,3.75,6.17,6.17,0,0,1-3.3,1V232h2.21a7.42,7.42,0,0,1,2.63.33,7.93,7.93,0,0,1,3.1,3,10.78,10.78,0,0,1,1.85,5.16q0,.42.12.48a.56.56,0,0,0,.29.05.65.65,0,0,0,.41-.16v-9.33H95.93C95.69,231.66,95.57,231.73,95.57,231.81Z"/>
        <path d="M138.06,246.54l-.27,0-.27,0a.42.42,0,0,0-.14.3,15.92,15.92,0,0,1-.8,3,12.89,12.89,0,0,1-2.44,4.31,5.79,5.79,0,0,1-2.35,1.77,8.63,8.63,0,0,1-2.82.42h-1.49V232h2.34a.67.67,0,0,0,.3-.06c.08,0,.13-.09.13-.15s-.05-.11-.13-.15a.67.67,0,0,0-.3-.06H118c-.26.08-.39.15-.39.22s.13.12.39.2h2.2v24.34H118a.67.67,0,0,0-.3.06c-.09,0-.13.09-.13.15s0,.12.13.15a.67.67,0,0,0,.3.06h19.94l.29-10.08C138.2,246.64,138.15,246.59,138.06,246.54Z"/>
        <path d="M152,231.65a.7.7,0,0,0-.3-.06H140.18a.55.55,0,0,0-.28.06.18.18,0,0,0-.11.16c0,.06,0,.1.11.14a.55.55,0,0,0,.28.06h2.13v24.34H139.9q-.39.12-.39.21c0,.07.13.13.39.21h11.82c.23-.06.35-.13.35-.21s-.12-.13-.35-.21h-2.13V232h2.13a.7.7,0,0,0,.3-.06q.12-.06.12-.15T152,231.65Z"/>
        <path d="M153.74,231.81c0,.06.12.12.36.2h2.3v24.34h-2.27a1,1,0,0,0-.39.06c-.09,0-.14.09-.14.15s.05.1.14.15a1,1,0,0,0,.39.06h20.16V246.42s0-.1-.13-.13a1,1,0,0,0-.33,0,.77.77,0,0,0-.46.18v1.11a10,10,0,0,1-1.1,3.77,9.5,9.5,0,0,1-1.92,2.75,7.21,7.21,0,0,1-2.66,1.77,8.49,8.49,0,0,1-2.88.51h-1.13V244.67a.39.39,0,0,1,.21-.37,1,1,0,0,1,.5-.1,3.92,3.92,0,0,1,2.37.84,4.67,4.67,0,0,1,1.92,3.93v1.2c0,.06,0,.11.13.15a.67.67,0,0,0,.3.06.58.58,0,0,0,.28-.06.18.18,0,0,0,.11-.15V237.74a.16.16,0,0,0-.11-.14.58.58,0,0,0-.28-.06.67.67,0,0,0-.3.06c-.09,0-.13.08-.13.14V239a4.31,4.31,0,0,1-1.7,3.75,6.17,6.17,0,0,1-3.3,1V232h2.2a7.44,7.44,0,0,1,2.64.33,7.93,7.93,0,0,1,3.1,3,10.78,10.78,0,0,1,1.85,5.16q0,.42.12.48a.54.54,0,0,0,.29.05.65.65,0,0,0,.41-.16v-9.33H154.1C153.86,231.66,153.74,231.73,153.74,231.81Z"/>
        <path d="M195.74,231.59h-5.37c-.27.08-.4.15-.4.22s.08.16.22.2l1.13.05a1.68,1.68,0,0,1,.93.35,1.07,1.07,0,0,1,.31.84,1.53,1.53,0,0,1-.07.47l-4.2,16.84L185.18,232h2.17a.85.85,0,0,0,.32,0,.17.17,0,0,0,.1-.16q0-.09-.12-.15a.67.67,0,0,0-.3-.06H176a.67.67,0,0,0-.3.06c-.09,0-.13.09-.13.15s0,.12.13.16a.85.85,0,0,0,.3,0h1.81l4.83,22.7a8.12,8.12,0,0,0,.53,1.93.62.62,0,0,0,.42.13H187a.84.84,0,0,0,.53-.12,4.55,4.55,0,0,0,.46-1.42l5.4-21.17a2.77,2.77,0,0,1,1-1.73,2.63,2.63,0,0,1,1.31-.35.66.66,0,0,0,.3-.07.15.15,0,0,0,.09-.13c0-.06,0-.1-.11-.14A.7.7,0,0,0,195.74,231.59Z"/>
        <path d="M196.58,231.81c0,.06.11.12.36.2h2.3v24.34H197a1,1,0,0,0-.39.06q-.15.06-.15.15t.15.15a1,1,0,0,0,.39.06h20.15V246.42s0-.1-.12-.13a1,1,0,0,0-.34,0,.82.82,0,0,0-.46.18v1.11a10,10,0,0,1-1.1,3.77,9.5,9.5,0,0,1-1.92,2.75,7,7,0,0,1-2.66,1.77,8.39,8.39,0,0,1-2.87.51h-1.14V244.67a.39.39,0,0,1,.22-.37.94.94,0,0,1,.49-.1,4,4,0,0,1,2.38.84,4.67,4.67,0,0,1,1.92,3.93v1.2q0,.09.12.15a.67.67,0,0,0,.3.06.6.6,0,0,0,.29-.06.17.17,0,0,0,.1-.15V237.74a.15.15,0,0,0-.1-.14.6.6,0,0,0-.29-.06.67.67,0,0,0-.3.06c-.08,0-.12.08-.12.14V239a4.29,4.29,0,0,1-1.71,3.75,6.17,6.17,0,0,1-3.3,1V232h2.21a7.48,7.48,0,0,1,2.64.33,7.91,7.91,0,0,1,3.09,3,10.9,10.9,0,0,1,1.86,5.16q0,.42.12.48a.52.52,0,0,0,.29.05.62.62,0,0,0,.4-.16v-9.33H196.93C196.69,231.66,196.58,231.73,196.58,231.81Z"/>
        <path d="M875.19,25.7c-3.1-14.5-23.9-25.7-49-25.7s-45.9,11.2-49,25.7c14.6-1.4,31.3-2.2,49-2.2S860.59,24.3,875.19,25.7Z"/>
        <path d="M929.49,42.7c-3.1-9.2-48.1-16.5-103.1-16.5-54.8,0-99.7,7.2-103.1,16.4v.1a3.55,3.55,0,0,0-.2,1c0,2.9,4,5.6,11.2,7.9a135.53,135.53,0,0,0,20.1,4.6c12.8-4.5,40.2-7.6,72-7.6s59.2,3.1,72,7.6a146.34,146.34,0,0,0,20.4-4.7c7-2.4,10.9-5,10.9-7.8C929.59,43.3,929.59,43,929.49,42.7Z"/>
        <path d="M898.39,63.5c-12.8-4.3-40.2-7.3-72-7.3s-59.3,3-72,7.3c-4.6,1.6-7.3,3.3-7.6,5.1v.3c0,4.2,13.1,8,33.2,10.3l5.4.6L758.49,220v.1c0,5.1,29.6,9.3,66.9,9.6h4.4c37.3-.3,66.9-4.5,66.9-9.6V220l-27-140.5,2.9-.3c20.2-2.3,33.4-6.1,33.4-10.3a.9.9,0,0,0-.1-.5C905.49,66.6,902.79,65,898.39,63.5ZM827.44,79.25c-25.7,0-46.53-2.75-46.53-6.13S801.74,67,827.44,67,874,69.74,874,73.12,853.15,79.25,827.44,79.25Z"/>
        <ellipse cx="827.44" cy="73.12" rx="46.54" ry="6.13"/>
      </g>
    </g>
  </g>
</svg>
