<svg xmlns="http://www.w3.org/2000/svg" viewBox="0 0 781.37 254.6">
  <g id="a55f5114-aad5-426d-929b-75d25d3653ec" data-name="Layer 2">
    <g id="aeec24a1-66a7-44be-b7a0-f83503ee86a1" data-name="Layer 2">
      <text transform="translate(254.08 119.04)" style="font-size: 100px;fill: #259ad3;font-family: MyriadPro-Regular, Myriad Pro"><tspan style="letter-spacing: -0.025986328125em">F</tspan><tspan x="46.1" y="0">ind</tspan></text>
      <g>
        <text transform="translate(260.08 202.84)" style="font-size: 100px;fill: #259ad3;font-family: MyriadPro-Regular, Myriad Pro"><tspan style="letter-spacing: -0.03298828125em">W</tspan><tspan x="81.3" y="0" style="letter-spacing: 0.0000048828125em">o</tspan><tspan x="136.2" y="0" style="letter-spacing: 0.003994140625em">r</tspan><tspan x="169.3" y="0">k</tspan></text>
        <text transform="translate(478.57 203.33)" style="font-size: 100px;fill: #5374e0;font-family: MyriadPro-Regular, Myriad Pro">G<tspan x="64.6" y="0" style="letter-spacing: -0.0099951171875em">r</tspan><tspan x="96.3" y="0">oups</tspan></text>
      </g>
      <g>
        <g>
          <path d="M156.42,157.43l29.32,29.32A41.47,41.47,0,0,0,127.1,128.1Z" style="fill: #5374e0"/>
          <path d="M156.47,98.71,127.15,128a41.47,41.47,0,0,1,58.64-58.65Z" style="fill: #259ad3"/>
          <path d="M97.87,98.69,127.19,128A41.47,41.47,0,0,1,68.55,69.36Z" style="fill: #5374e0"/>
          <path d="M97.87,157.33,127.19,128a41.46,41.46,0,0,1-58.64,58.64Z" style="fill: #259ad3"/>
        </g>
        <rect x="42.29" y="42.29" width="170.03" height="170.03" transform="translate(127.3 -52.73) rotate(45)" style="fill: none;stroke: #259ad3;stroke-miterlimit: 10;stroke-width: 10px"/>
        <line x1="123.78" y1="251.05" x2="251.03" y2="123.8" style="fill: none;stroke: #5374e0;stroke-miterlimit: 10;stroke-width: 10px"/>
        <line x1="3.57" y1="130.81" x2="130.83" y2="3.54" style="fill: none;stroke: #5374e0;stroke-miterlimit: 10;stroke-width: 10px"/>
      </g>
    </g>
  </g>
</svg>
