<svg xmlns="http://www.w3.org/2000/svg" viewBox="0 0 929.69 256.77">
  <g id="a7ba4f44-5897-4e8c-b3dc-b9809f92d2cb" data-name="Layer 2">
    <g id="e4e485a6-d0c9-40bb-a173-3aac2c2a2bb7" data-name="Layer 1">
      <g>
        <g id="b9afc188-6cb7-4e42-a0c6-eb34a533ca2a" data-name="Layer 2">
          <g style="isolation: isolate">
            <path d="M10.14,56.16H1.59Q0,55.28,0,54.72t1.59-1.44H48a1.68,1.68,0,0,1,1.16.39,1.21,1.21,0,0,1,.43.94,1.49,1.49,0,0,1-.43,1.17,1.67,1.67,0,0,1-1.16.38H39.84V214.92a9,9,0,0,0,3.36,7.5q3.34,2.66,9,2.65,10.36,0,17.16-6.51T76.2,198V71q0-8.66-1.81-11c-1.21-1.58-3.51-2.67-6.89-3.29a8.43,8.43,0,0,1-3.4-1.1,1.74,1.74,0,0,1-.8-1.32l.29-.81,1.16-.23H87.51a3.64,3.64,0,0,1,2.16,1.22,1.25,1.25,0,0,1-.65,1,5.64,5.64,0,0,1-2.25.66,6.07,6.07,0,0,0-4.49,2.66q-2.76,3.69-2.75,12.11V201.19q0,13.38-8.62,20.3t-24.84,6.93q-20.43,0-29.56-8.31-6.38-5.88-6.37-22.15Z"/>
            <path d="M107.92,56.16h-9c-1.06-.53-1.59-1-1.59-1.38q0-.81,1.59-1.5h80v64.11a1.13,1.13,0,0,1-.42.92,1.67,1.67,0,0,1-1.11.34,1.6,1.6,0,0,1-1.25-.46c-.27-.3-.46-1.49-.55-3.56a116.85,116.85,0,0,0-6.11-30.56q-5.37-16.27-10.18-22.15a14.16,14.16,0,0,0-6-4.32q-3.49-1.32-10.76-1.32h-4.94v81.05q6.85-.45,11.67-6.57,7.31-9.34,7.3-28.94V95.48a1.21,1.21,0,0,1,.46-1,1.93,1.93,0,0,1,1.21-.34,1.75,1.75,0,0,1,1.21.4,1.28,1.28,0,0,1,.45,1V182a1.23,1.23,0,0,1-.45,1,2,2,0,0,1-1.21.35L157.2,183a1.3,1.3,0,0,1-.61-1V171.69q0-16.71-7.15-25.48a15.36,15.36,0,0,0-11.82-5.88v83.48h9.24a1.71,1.71,0,0,1,1.18.38,1.48,1.48,0,0,1,0,2.11,1.66,1.66,0,0,1-1.16.39H99a2.54,2.54,0,0,1-1.6-.45,1.23,1.23,0,0,1-.58-1,1.2,1.2,0,0,1,.58-1.06,2.79,2.79,0,0,1,1.59-.38h9Z"/>
            <path d="M271.76,120.38v42.55q0,36.78-14.64,53.73Q247,228.42,231.77,228.42a33.16,33.16,0,0,1-19-5.88q-8.7-5.88-13.62-17.3-8-18.33-8-40.7V114.73q0-34.82,14.63-51.65Q216,51.44,230.91,51.44A33.59,33.59,0,0,1,244.23,54a32.62,32.62,0,0,1,10.87,7.61,49.21,49.21,0,0,1,8.62,13.26A70.08,70.08,0,0,1,269.15,92,167,167,0,0,1,271.76,120.38Zm-50,89.13q0,9,3.48,13a8.25,8.25,0,0,0,6.37,2.88,9,9,0,0,0,6.37-2.6q2.76-2.58,2.76-7.43V67.58q0-6.22-3.63-9.92A8.11,8.11,0,0,0,230.91,55a7.82,7.82,0,0,0-5.8,2.54q-3.33,3.45-3.33,10Z"/>
            <path d="M350.85,67.46q0-5.29-1.74-7.61a9.39,9.39,0,0,0-5.36-3.23l-6.23-.46c-.48-.15-.72-.57-.72-1.27a1.72,1.72,0,0,1,.36-1.26,3,3,0,0,1,1.81-.35h25.64a1.24,1.24,0,0,1,.94.4,1.43,1.43,0,0,1,.36,1,1,1,0,0,1-.36.87,11.77,11.77,0,0,1-2.53,1c-3,.92-5.07,2.13-6.23,3.63s-1.89,4.28-2.18,8.35v158.2h-22.4l-36.12-158V211.81q0,5.88,1.6,8.25a8.46,8.46,0,0,0,5.21,3.28l6.52.47a1.38,1.38,0,0,1,.72,1.38,1.53,1.53,0,0,1-.36,1.21,3.49,3.49,0,0,1-1.81.29H282.33a1.3,1.3,0,0,1-.94-.35,1.22,1.22,0,0,1-.36-.92,1.07,1.07,0,0,1,.36-.87,12.66,12.66,0,0,1,2.53-1q4.5-1.38,6.16-3.57t2.1-8.53V56.16h-8.11a1.88,1.88,0,0,1-1.23-.4,1.32,1.32,0,0,1-.51-1.1,1.22,1.22,0,0,1,.51-1,1.93,1.93,0,0,1,1.23-.4h37.52l29.26,126.83Z"/>
            <path d="M381.27,56.16h-8.69a1.62,1.62,0,0,1-1.16-.4,1.3,1.3,0,0,1-.44-1,1.44,1.44,0,0,1,.44-1.1,1.67,1.67,0,0,1,1.16-.4h47.08a2,2,0,0,1,1.23.4,1.22,1.22,0,0,1,.51,1,1.32,1.32,0,0,1-.51,1.1,1.91,1.91,0,0,1-1.23.4H411V223.81h8.7q1.44.76,1.44,1.44t-1.44,1.44H371.42c-1.07-.52-1.59-1-1.59-1.44s.52-.93,1.59-1.44h9.85Z"/>
            <path d="M491.07,64.35l9.56-10.72A3.16,3.16,0,0,1,503,52.24a1.13,1.13,0,0,1,.72.23,1,1,0,0,1,.29.81v68.83a1.1,1.1,0,0,1-.5.93,2.14,2.14,0,0,1-1.23.34c-.68,0-1.12-.15-1.31-.46s-.48-2.27-.87-6.11Q495.13,75,485.28,61.93q-5.65-7.26-13.33-7.27a9.49,9.49,0,0,0-7.1,3q-2.89,3-2.89,10.72V217.46a7.13,7.13,0,0,0,2.6,5.83,10,10,0,0,0,6.52,2.13,9.1,9.1,0,0,0,6.66-2.42q3.33-3.45,3.34-9.32V149.44h-7.54a1.87,1.87,0,0,1-1.23-.42,1.28,1.28,0,0,1-.51-1,1.4,1.4,0,0,1,.51-1.14,1.87,1.87,0,0,1,1.23-.42H515.7a1.68,1.68,0,0,1,1.16.4,1.43,1.43,0,0,1,.43,1.1,1.29,1.29,0,0,1-.43,1,1.64,1.64,0,0,1-1.16.4h-6.52v77.37a2,2,0,0,1-.44,1.38,1.06,1.06,0,0,1-.86.35,1.91,1.91,0,0,1-1.09-.35,4.12,4.12,0,0,1-1.09-1.38l-8.25-16.23q-8.42,11.4-13.84,14.68a23.82,23.82,0,0,1-12.53,3.28q-19.69,0-29.84-17.64T431.1,163V120.15q0-30.78,10.86-49.75t28.25-19Q482.81,51.44,491.07,64.35Z"/>
            <path d="M533.52,223.81V56.16H524c-1.07-.53-1.6-1-1.6-1.5s.53-.84,1.59-1.38h43.9q1.59.81,1.59,1.38t-1.59,1.5h-4.64V135h18.54V56.16h-6.08q-1.59-.79-1.59-1.5t1.59-1.38h44.76q1.59.81,1.59,1.38t-1.59,1.5h-8.69V223.81h8.69a2.25,2.25,0,0,1,1.3.38,1.25,1.25,0,0,1,0,2.11,2.29,2.29,0,0,1-1.31.39H577a2,2,0,0,1-1.24-.39,1.25,1.25,0,0,1-.51-1.05,1.27,1.27,0,0,1,.52-1.06,2,2,0,0,1,1.26-.38h4.74v-86H563.21v86h5.65a2,2,0,0,1,1.23.38,1.35,1.35,0,0,1,0,2.11,1.94,1.94,0,0,1-1.22.39H524q-1.59-.78-1.59-1.44c0-.45.53-.93,1.6-1.44Z"/>
            <path d="M661.71,56.28h-3a9.41,9.41,0,0,0-5.5,1.61q-3.48,2.41-6.81,10.71a182.15,182.15,0,0,0-9.13,31.71q-3.76,18.48-3.76,23.42v2.65a1.84,1.84,0,0,1-.58,1.44,1.9,1.9,0,0,1-1.31.52,1.7,1.7,0,0,1-1.3-.46,2.06,2.06,0,0,1-.72-1.5V53.28h94v73a1.69,1.69,0,0,1-.58,1.32,2.08,2.08,0,0,1-1.45.52,1.87,1.87,0,0,1-1.3-.52,1.67,1.67,0,0,1-.58-1.32v-4.48q0-6.56-4.13-24.42A171.23,171.23,0,0,0,706,67.31q-3.48-7.81-5.72-9.42a7.45,7.45,0,0,0-4.27-1.61h-4.64V223.81h11.3q1.59.76,1.59,1.44t-1.59,1.44h-53.6a1.68,1.68,0,0,1-1.16-.39,1.51,1.51,0,0,1,0-2.11,1.67,1.67,0,0,1,1.16-.38h12.6Z"/>
          </g>
          <g style="isolation: isolate">
            <path d="M6.6,232H4.9q-.39-.1-.39-.21t.39-.21h11a.55.55,0,0,1,.28.06.16.16,0,0,1,0,.31.7.7,0,0,1-.28,0H14l3.36,16.93,3.46-15.39L20.45,232H18.67a.85.85,0,0,1-.3,0,.18.18,0,0,1-.12-.16q0-.09.12-.15a.67.67,0,0,1,.3-.06H29.78q.39.12.39.21t-.39.21h-2l3.39,16.93,3.5-15a3.91,3.91,0,0,0,0-.45,1.26,1.26,0,0,0-.35-.93,1.93,1.93,0,0,0-1-.46L32.22,232c-.14,0-.21-.1-.21-.19s.13-.14.39-.23h5.87q.39.12.39.21a.16.16,0,0,1-.09.14.66.66,0,0,1-.3.07,3.37,3.37,0,0,0-1.63.51,2.41,2.41,0,0,0-1.21,1.57l-4.72,20.84a4,4,0,0,1-.64,1.69,1,1,0,0,1-.63.15H26.9a1.42,1.42,0,0,1-.81-.2l-.42-1.86L21.16,235.5,16.9,254.93a5.5,5.5,0,0,1-.49,1.67,1.61,1.61,0,0,1-.89.17H13a.94.94,0,0,1-.6-.15,4.57,4.57,0,0,1-.46-1.49Z"/>
            <path d="M42.27,232H40c-.24-.08-.36-.14-.36-.2s.11-.15.35-.22H60.15v9.33a.62.62,0,0,1-.4.16.52.52,0,0,1-.29-.05q-.09-.06-.12-.48a11,11,0,0,0-1.85-5.16,8,8,0,0,0-3.1-3,7.44,7.44,0,0,0-2.64-.33H49.54V243.8a6.17,6.17,0,0,0,3.3-1A4.29,4.29,0,0,0,54.55,239v-1.3c0-.06,0-.11.12-.14a.67.67,0,0,1,.3-.06.6.6,0,0,1,.29.06.15.15,0,0,1,.1.14v12.43a.17.17,0,0,1-.1.15.6.6,0,0,1-.29.06.67.67,0,0,1-.3-.06q-.12-.06-.12-.15V249A4.67,4.67,0,0,0,52.63,245a4,4,0,0,0-2.38-.84.94.94,0,0,0-.49.1.39.39,0,0,0-.22.37v11.66h1.14a8.39,8.39,0,0,0,2.87-.51,7.16,7.16,0,0,0,2.67-1.77,9.66,9.66,0,0,0,1.91-2.75,9.86,9.86,0,0,0,1.1-3.77v-1.11a.82.82,0,0,1,.46-.18,1,1,0,0,1,.34,0c.08,0,.12.08.12.13v10.35H40a1,1,0,0,1-.39-.06q-.15-.07-.15-.15t.15-.15a1,1,0,0,1,.39-.06h2.27Z"/>
            <path d="M74.35,256.35V232H72q-.39-.12-.39-.21t.39-.21H82.48a17.25,17.25,0,0,1,7.89,1.58q3.07,1.58,3.07,4.42a4.58,4.58,0,0,1-1,3,7.81,7.81,0,0,1-3.25,2.12,22.83,22.83,0,0,1-4.18,1,24.71,24.71,0,0,1,4.29,1,8.81,8.81,0,0,1,3.33,2.07,4.19,4.19,0,0,1,1.14,3,5.76,5.76,0,0,1-1.67,4.06,8.48,8.48,0,0,1-3.73,2.07,20.52,20.52,0,0,1-6.21.83H72c-.26-.08-.39-.14-.39-.21s.13-.13.39-.21ZM81.63,232v11.5h1.89a4.68,4.68,0,0,0,1.92-.3,1,1,0,0,0,.62-1V233.5a1.15,1.15,0,0,0-.64-1.16,6.62,6.62,0,0,0-2.51-.31Zm0,11.93v12.37h1.14a5.94,5.94,0,0,0,2.4-.4c.59-.27.89-.63.89-1.08v-9.73a.93.93,0,0,0-.52-.89,3.67,3.67,0,0,0-1.62-.27Z"/>
            <path d="M98.23,232h-2.3c-.24-.08-.36-.14-.36-.2s.12-.15.36-.22h20.19v9.33a.65.65,0,0,1-.41.16.56.56,0,0,1-.29-.05s-.09-.2-.12-.48a10.78,10.78,0,0,0-1.85-5.16,7.93,7.93,0,0,0-3.1-3,7.42,7.42,0,0,0-2.63-.33h-2.21V243.8a6.17,6.17,0,0,0,3.3-1,4.28,4.28,0,0,0,1.7-3.75v-1.3c0-.06,0-.11.13-.14a.67.67,0,0,1,.3-.06.55.55,0,0,1,.28.06.16.16,0,0,1,.11.14v12.43a.18.18,0,0,1-.11.15.55.55,0,0,1-.28.06.67.67,0,0,1-.3-.06c-.09,0-.13-.09-.13-.15V249A4.67,4.67,0,0,0,108.6,245a4,4,0,0,0-2.38-.84,1,1,0,0,0-.5.1.39.39,0,0,0-.21.37v11.66h1.14a8.44,8.44,0,0,0,2.87-.51,7.13,7.13,0,0,0,2.66-1.77,9.5,9.5,0,0,0,1.92-2.75,10,10,0,0,0,1.1-3.77v-1.11a.79.79,0,0,1,.46-.18,1.06,1.06,0,0,1,.34,0c.08,0,.12.08.12.13v10.35H96a1.07,1.07,0,0,1-.39-.06c-.09,0-.14-.1-.14-.15s0-.11.14-.15a1.07,1.07,0,0,1,.39-.06h2.27Z"/>
            <path d="M120.2,232H118c-.26-.08-.39-.14-.39-.2s.13-.14.39-.22h11.82a.67.67,0,0,1,.3.06c.08,0,.13.09.13.15s-.05.11-.13.15a.67.67,0,0,1-.3.06h-2.34v24.32H129a8.63,8.63,0,0,0,2.82-.42,5.79,5.79,0,0,0,2.35-1.77,12.89,12.89,0,0,0,2.44-4.31,15.92,15.92,0,0,0,.8-3,.42.42,0,0,1,.14-.3l.27,0,.27,0c.09.05.14.1.14.15l-.29,10.08H118a.67.67,0,0,1-.3-.06c-.09,0-.13-.08-.13-.15s0-.11.13-.15a.67.67,0,0,1,.3-.06h2.23Z"/>
            <path d="M142.31,232h-2.13a.55.55,0,0,1-.28-.06c-.07,0-.11-.08-.11-.14a.18.18,0,0,1,.11-.16.55.55,0,0,1,.28-.06h11.54a.7.7,0,0,1,.3.06q.12.06.12.15T152,232a.7.7,0,0,1-.3.06h-2.13v24.34h2.13c.23.08.35.15.35.21s-.12.15-.35.21H139.9c-.26-.08-.39-.14-.39-.21s.13-.13.39-.21h2.41Z"/>
            <path d="M156.4,232h-2.3c-.24-.08-.36-.14-.36-.2s.12-.15.36-.22h20.19v9.33a.65.65,0,0,1-.41.16.54.54,0,0,1-.29-.05q-.09-.06-.12-.48a10.78,10.78,0,0,0-1.85-5.16,7.93,7.93,0,0,0-3.1-3,7.44,7.44,0,0,0-2.64-.33h-2.2V243.8a6.17,6.17,0,0,0,3.3-1,4.31,4.31,0,0,0,1.7-3.75v-1.3c0-.06,0-.11.13-.14a.67.67,0,0,1,.3-.06.58.58,0,0,1,.28.06.16.16,0,0,1,.11.14v12.43a.18.18,0,0,1-.11.15.58.58,0,0,1-.28.06.67.67,0,0,1-.3-.06c-.09,0-.13-.09-.13-.15V249a4.67,4.67,0,0,0-1.92-3.93,3.92,3.92,0,0,0-2.37-.84,1,1,0,0,0-.5.1.39.39,0,0,0-.21.37v11.66h1.13a8.49,8.49,0,0,0,2.88-.51,7.21,7.21,0,0,0,2.66-1.77,9.5,9.5,0,0,0,1.92-2.75,10,10,0,0,0,1.1-3.77v-1.11a.77.77,0,0,1,.46-.18,1,1,0,0,1,.33,0c.09,0,.13.08.13.13v10.35H154.13a1,1,0,0,1-.39-.06c-.09,0-.14-.1-.14-.15s.05-.11.14-.15a1,1,0,0,1,.39-.06h2.27Z"/>
            <path d="M177.84,232H176a.85.85,0,0,1-.3,0c-.09,0-.13-.09-.13-.16s0-.11.13-.15a.67.67,0,0,1,.3-.06h11.32a.67.67,0,0,1,.3.06q.12.06.12.15a.17.17,0,0,1-.1.16.85.85,0,0,1-.32,0h-2.17l3.11,18.55,4.2-16.84a1.53,1.53,0,0,0,.07-.47,1.07,1.07,0,0,0-.31-.84,1.68,1.68,0,0,0-.93-.35l-1.13-.05c-.14,0-.22-.11-.22-.2s.13-.14.4-.22h5.37a.7.7,0,0,1,.28,0c.07,0,.11.08.11.14a.15.15,0,0,1-.09.13.66.66,0,0,1-.3.07,2.63,2.63,0,0,0-1.31.35,2.77,2.77,0,0,0-1,1.73L188,255.23a4.55,4.55,0,0,1-.46,1.42.84.84,0,0,1-.53.12h-3.39a.62.62,0,0,1-.42-.13,8.12,8.12,0,0,1-.53-1.93Z"/>
            <path d="M199.24,232h-2.3c-.25-.08-.36-.14-.36-.2s.11-.15.35-.22h20.19v9.33a.62.62,0,0,1-.4.16.52.52,0,0,1-.29-.05q-.09-.06-.12-.48a10.9,10.9,0,0,0-1.86-5.16,7.91,7.91,0,0,0-3.09-3,7.48,7.48,0,0,0-2.64-.33h-2.21V243.8a6.17,6.17,0,0,0,3.3-1,4.29,4.29,0,0,0,1.71-3.75v-1.3c0-.06,0-.11.12-.14a.67.67,0,0,1,.3-.06.6.6,0,0,1,.29.06.15.15,0,0,1,.1.14v12.43a.17.17,0,0,1-.1.15.6.6,0,0,1-.29.06.67.67,0,0,1-.3-.06q-.12-.06-.12-.15V249A4.67,4.67,0,0,0,209.6,245a4,4,0,0,0-2.38-.84.94.94,0,0,0-.49.1.39.39,0,0,0-.22.37v11.66h1.14a8.39,8.39,0,0,0,2.87-.51,7,7,0,0,0,2.66-1.77,9.5,9.5,0,0,0,1.92-2.75,10,10,0,0,0,1.1-3.77v-1.11a.82.82,0,0,1,.46-.18,1,1,0,0,1,.34,0c.08,0,.12.08.12.13v10.35H197a1,1,0,0,1-.39-.06q-.15-.07-.15-.15t.15-.15a1,1,0,0,1,.39-.06h2.27Z"/>
          </g>
        </g>
        <g>
          <path d="M875.19,25.7c-3.1-14.5-23.9-25.7-49-25.7s-45.9,11.2-49,25.7c14.6-1.4,31.3-2.2,49-2.2S860.59,24.3,875.19,25.7Z"/>
          <path d="M929.49,42.7c-3.1-9.2-48.1-16.5-103.1-16.5-54.8,0-99.7,7.2-103.1,16.4v.1a3.55,3.55,0,0,0-.2,1c0,2.9,4,5.6,11.2,7.9a135.53,135.53,0,0,0,20.1,4.6c12.8-4.5,40.2-7.6,72-7.6s59.2,3.1,72,7.6a146.34,146.34,0,0,0,20.4-4.7c7-2.4,10.9-5,10.9-7.8C929.59,43.3,929.59,43,929.49,42.7Z"/>
          <path d="M898.39,63.5c-12.8-4.3-40.2-7.3-72-7.3s-59.3,3-72,7.3c-4.6,1.6-7.3,3.3-7.6,5.1v.3c0,4.2,13.1,8,33.2,10.3l5.4.6L758.49,220v.1c0,5.1,29.6,9.3,66.9,9.6h4.4c37.3-.3,66.9-4.5,66.9-9.6V220l-27-140.5,2.9-.3c20.2-2.3,33.4-6.1,33.4-10.3a.9.9,0,0,0-.1-.5C905.49,66.6,902.79,65,898.39,63.5ZM827.44,79.25c-25.7,0-46.53-2.75-46.53-6.13S801.74,67,827.44,67,874,69.74,874,73.12,853.15,79.25,827.44,79.25Z"/>
          <ellipse cx="827.44" cy="73.12" rx="46.54" ry="6.13"/>
        </g>
      </g>
    </g>
  </g>
</svg>
